<svg id="Layer_1" data-name="Layer 1" xmlns="http://www.w3.org/2000/svg" viewBox="0 0 479.87 49.9"><defs><style>.cls-1{fill:#e7db49;}</style></defs><title>title</title><path class="cls-1" d="M50.73,49.68l-.58.79-.36,1.22L49.14,57a27.31,27.31,0,0,1-1.58,6.59,22,22,0,0,1-2.81,5.22A12.68,12.68,0,0,1,41,72.22a8.56,8.56,0,0,1-4.39,1.22,9.2,9.2,0,0,1-3.49-.72,14.32,14.32,0,0,1-3.42-2,18.37,18.37,0,0,1-3.06-3.06,19.49,19.49,0,0,1-2.41-3.92,29.27,29.27,0,0,1-2.12-5.9A48.77,48.77,0,0,1,21,50.4a4.58,4.58,0,0,0-.18-1,3.91,3.91,0,0,0-.47-.79,4.45,4.45,0,0,1-.58-.94,2.31,2.31,0,0,1-.14-.86q0-1.37,1.73-1.87V44.5a18.73,18.73,0,0,1,.14-2.27q.14-1.19.43-2.7,1.44-7.7,4.75-11.66a10.36,10.36,0,0,1,8.28-4,10.76,10.76,0,0,1,5.69,1.62A16,16,0,0,1,45.33,30a23.81,23.81,0,0,1,3.24,6.59,29.21,29.21,0,0,1,1.37,8,2.52,2.52,0,0,0,.29,1.37l.58.94a3.2,3.2,0,0,1,.36,1.44A2.22,2.22,0,0,1,50.73,49.68Zm-3-4.25h-.14l-.5.14h-.14q-.5,0-.5-1.3l-.14-3.89a32.28,32.28,0,0,0-.86-5.26Q42.73,24.7,34.81,24.7a9.4,9.4,0,0,0-5.33,1.58,12.62,12.62,0,0,0-4,4.68,20.25,20.25,0,0,0-2.23,6.26q-.43,2-.68,4.18a30.86,30.86,0,0,0-.25,3.38,1.74,1.74,0,0,1-.14.86.56.56,0,0,1-.5.22h-.5a.64.64,0,0,0-.72.72q0,1.15,1,1.15a1.33,1.33,0,0,0,1.26-1,12.08,12.08,0,0,0,.54-3.42,34.62,34.62,0,0,1,1.15-7.52,20.7,20.7,0,0,1,2.45-5.69,11.36,11.36,0,0,1,3.56-3.6A8.57,8.57,0,0,1,35,25.27q4.82,0,7.6,4.68t3,13.18a15.79,15.79,0,0,0,.36,3.64,1.22,1.22,0,0,0,1.3.9,1.15,1.15,0,0,0,.9-.36,1.34,1.34,0,0,0,.32-.94C48.42,45.74,48.18,45.43,47.7,45.43Zm-1.87,3.1-.07.94-.22,3.1Q45,60.91,42.19,65.3a8.51,8.51,0,0,1-7.52,4.39q-5.47,0-8.5-5.36t-3.38-15.8l-.94.79q0,1.15.07,2L22.07,53a14.23,14.23,0,0,0,.25,1.69q.18.86.4,2,3.1,13.9,12,13.9,5.54,0,8.42-5.26t3.31-16.2ZM39.21,36.65V35.21a24.22,24.22,0,0,0-.11-2.81,7.8,7.8,0,0,0-.47-1.73,3.9,3.9,0,0,0-1.55-2.2,4.58,4.58,0,0,0-2.63-.76q-4.82,0-4.82,7v9.65q0,3.53,1.8,3.53.94,0,.94-1t-1.15-1.08a.93.93,0,0,1-.65-.47,4.91,4.91,0,0,1-.14-1.55V36.14a22.29,22.29,0,0,1,.29-4.39,3.87,3.87,0,0,1,3.82-3.17q4,0,4,6.41v9.94c0,.67-.14,1-.43,1L38,45.86l-.58-.14q-.86,0-.86,1a.85.85,0,0,0,.32.65,1.1,1.1,0,0,0,.76.29,1.25,1.25,0,0,0,1.22-.9,8.81,8.81,0,0,0,.36-3Zm.07,11.59-.79.58v12a7.43,7.43,0,0,1-1,4.21,3.28,3.28,0,0,1-2.88,1.48,3.45,3.45,0,0,1-2.48-1,4.6,4.6,0,0,1-1.33-2.52q-.15-.79-.25-2t-.11-2.2V49.18l-.72-.79V59.76q0,7.34,4.82,7.34a4,4,0,0,0,3.6-1.76q1.15-1.76,1.15-5.65Zm-1.58,4.18v-1a6.37,6.37,0,0,0-.14-1.55,1.82,1.82,0,0,0-.43-.83l-.94-.94a1.75,1.75,0,0,1-.5-1.3,1.88,1.88,0,0,1,.5-1.33,1.69,1.69,0,0,1,1.3-.54h.22V35.5a6.91,6.91,0,0,0-.5-3.17,1.84,1.84,0,0,0-1.73-.86q-2.23,0-2.23,3.82v8.78a12.47,12.47,0,0,0,0,1.26,1.72,1.72,0,0,0,.25.61L34.17,47a2.07,2.07,0,0,1,.36,1.08,2.67,2.67,0,0,1-.43,1.37,8.82,8.82,0,0,0-.58,1.08,3.71,3.71,0,0,0-.22.83,10.73,10.73,0,0,0-.07,1.48v7.7a11.91,11.91,0,0,0,.43,3.85,1.53,1.53,0,0,0,1.51,1.12A2,2,0,0,0,37,64.22a8.38,8.38,0,0,0,.65-3.67Z" transform="translate(-19.62 -23.54)"/><path class="cls-1" d="M79.21,64.62A14.36,14.36,0,0,1,72.34,72a10.51,10.51,0,0,1-4.75,1.15,8.25,8.25,0,0,1-3.69-.86,16.53,16.53,0,0,1-3.83-2.81l-.93.83-.68.61a7.34,7.34,0,0,0-.61.61,10.09,10.09,0,0,0-.65.83l-.5.65L54.4,70.7q.14-.86.22-1.37a8.3,8.3,0,0,0,.07-1.15,7.22,7.22,0,0,0-.36-2.52l-1.08-2.88a10.37,10.37,0,0,1-.65-3.53A6,6,0,0,1,54.22,55a5.42,5.42,0,0,1,4.14-1.73,5.5,5.5,0,0,1,3,.83A10.78,10.78,0,0,1,64.12,57a6.64,6.64,0,0,1,1.3,5.9,6.7,6.7,0,0,1-.86,1.8,2.94,2.94,0,0,0,1.3.36,3.32,3.32,0,0,0,2.74-1.62,6.36,6.36,0,0,0,1.15-3.78A7,7,0,0,0,68.8,56a11.55,11.55,0,0,0-3-3.17,13.18,13.18,0,0,1-1.4.29,7.37,7.37,0,0,1-1,.07,3.16,3.16,0,0,1-1.91-.5,1.54,1.54,0,0,1-.68-1.3,7,7,0,0,1,.14-.86,1,1,0,0,0,.14-.58.83.83,0,0,0-.25-.5,9.27,9.27,0,0,0-1.48-1.08,13.28,13.28,0,0,1-5.9-11.45,14.58,14.58,0,0,1,.9-5.18,11.18,11.18,0,0,1,6.38-6.62,12.91,12.91,0,0,1,5-.94,15.13,15.13,0,0,1,4.13.54,18.72,18.72,0,0,1,4.07,1.76l.36-.29.58-.43a2.19,2.19,0,0,0,.32-.25,1,1,0,0,1,.25-.18l.43-.29,2.3,2.74c-.14.58-.24,1-.29,1.37a7.6,7.6,0,0,0-.07,1.08,7.94,7.94,0,0,0,.36,2.23L79,35a5.33,5.33,0,0,1,.36,2.16A6.34,6.34,0,0,1,78,41.4a4.54,4.54,0,0,1-3.64,1.66,7.5,7.5,0,0,1-2.84-.54A7.26,7.26,0,0,1,69.17,41a7.38,7.38,0,0,1-1.58-2.2A6.19,6.19,0,0,1,67,36.14a5.28,5.28,0,0,1,.14-1.33,8,8,0,0,1,.57-1.4,1.86,1.86,0,0,1-.43,0,1.2,1.2,0,0,0-.29,0,2.33,2.33,0,0,0-1.94,1.08A4.27,4.27,0,0,0,64.29,37,5.38,5.38,0,0,0,65,39.67a10.14,10.14,0,0,0,2.4,2.66,3.85,3.85,0,0,1,.79-.47,2.07,2.07,0,0,1,.72-.11,2.34,2.34,0,0,1,1.48.54,2.13,2.13,0,0,1,.83,1.19l.22,1.3a2.52,2.52,0,0,0,.5.94,7.77,7.77,0,0,0,1.37,1.15,18.44,18.44,0,0,1,5.22,5.8,13.9,13.9,0,0,1,1.76,6.8A13.18,13.18,0,0,1,79.21,64.62ZM76,51.48a14.59,14.59,0,0,0-2.38-3.06,23.42,23.42,0,0,0-3.6-3l-.72.29.29.22q1.22.94,1.91,1.55t1,.83a10.59,10.59,0,0,1,3,3.71,11.53,11.53,0,0,1,.9,4.79,14.6,14.6,0,0,1-.83,5,13.22,13.22,0,0,1-2.27,4,11.07,11.07,0,0,1-3.35,2.74,8.68,8.68,0,0,1-4.13,1q-4.37,0-8.1-4.1l-1.51,1.8L56,66.53l-.21-1.15-.5-1.58-.64-1.73a6.94,6.94,0,0,1-.43-2.45,4.94,4.94,0,0,1,1.15-3.35,3.73,3.73,0,0,1,3-1.33A3.09,3.09,0,0,1,60.81,56a4.14,4.14,0,0,1,.94,2.81,5.51,5.51,0,0,1-.32,1.94,8.69,8.69,0,0,1-1.26,2.09,10.89,10.89,0,0,0,2.72,2.84,5.25,5.25,0,0,0,2.92.83,4.76,4.76,0,0,0,3.89-2.05,7.83,7.83,0,0,0,1.58-4.93,8.54,8.54,0,0,0-1.37-4.72,15.33,15.33,0,0,0-4.54-4.21v1a14.53,14.53,0,0,1,4,3.78,7.6,7.6,0,0,1,1.18,4.21,7,7,0,0,1-.4,2.34,7.41,7.41,0,0,1-1,2,5.07,5.07,0,0,1-1.51,1.37,3.49,3.49,0,0,1-1.79.5A4.89,4.89,0,0,1,63.21,65a6,6,0,0,1-2.08-2.16,8,8,0,0,0,1.43-4.32,4.38,4.38,0,0,0-1.26-3.17,4.08,4.08,0,0,0-3-1.3,4.46,4.46,0,0,0-3.41,1.51,5.12,5.12,0,0,0-1.4,3.6,8.93,8.93,0,0,0,.18,1.76,13.41,13.41,0,0,0,.54,1.91,28.38,28.38,0,0,1,.94,3A7.19,7.19,0,0,1,55.33,67a14.34,14.34,0,0,1,.07,1.48v.79l2.29-2.59a1,1,0,0,0,.21.18.64.64,0,0,1,.14.11q1.36,1.08,2.26,1.76a7.5,7.5,0,0,0,1.68,1,6.41,6.41,0,0,0,1.58.43,15.22,15.22,0,0,0,2,.11,10.17,10.17,0,0,0,4.56-1,11.26,11.26,0,0,0,3.67-2.88,14.16,14.16,0,0,0,2.45-4.28,15.33,15.33,0,0,0,.9-5.33A11.61,11.61,0,0,0,76,51.48Zm.5-17.28-.29-1.44-.65-2.52a7.34,7.34,0,0,1-.29-2.16,7.54,7.54,0,0,1,0-.83,7,7,0,0,1,.18-.9L73,28.08a12.69,12.69,0,0,0-3.71-2.38A10.67,10.67,0,0,0,65.41,25a10.91,10.91,0,0,0-8,3.39,11.16,11.16,0,0,0-2.34,3.75,13,13,0,0,0-.83,4.69q0,7.29,6.77,11.77l1.3.87q.43.29.43.58c0,.14-.17.29-.5.43s-.65.46-.65.79A.89.89,0,0,0,62,52a1.24,1.24,0,0,0,.79.29,1.27,1.27,0,0,0,1-.43,1.45,1.45,0,0,0,.4-1A2,2,0,0,0,63,49L60.16,46.8a14.51,14.51,0,0,1-3.82-4.43A11.45,11.45,0,0,1,55,36.86a11.89,11.89,0,0,1,.79-4.39A11.09,11.09,0,0,1,58,28.94a10.22,10.22,0,0,1,3.31-2.38A10,10,0,0,1,73,29.23l1.44-1.15.07.5a10.63,10.63,0,0,1,.18,1.19,3.08,3.08,0,0,0,.11.68,7.31,7.31,0,0,1,.18.76q.11.54.4,1.55a12.07,12.07,0,0,1,.43,3,4.19,4.19,0,0,1-1.12,3A3.65,3.65,0,0,1,72,40,3.22,3.22,0,0,1,69.59,39a3.31,3.31,0,0,1-.94-2.45q0-2.45,2.52-4.9Q69,29.09,66.57,29.09a4.78,4.78,0,0,0-3.74,1.73,6.22,6.22,0,0,0-1.51,4.25,8.35,8.35,0,0,0,.5,2.84,9.68,9.68,0,0,0,1.3,2.48,16.09,16.09,0,0,0,3,2.92,5,5,0,0,0,2.52,1.26q1.22,0,1.22-1.08t-.86-.94a1,1,0,0,0-.72.36c-.19.29-.31.43-.36.43a1.23,1.23,0,0,1-.36-.14,10.82,10.82,0,0,1-1.66-1.08Q62.1,39,62.1,35a5.45,5.45,0,0,1,1.3-3.67,4,4,0,0,1,3.17-1.51,4.38,4.38,0,0,1,3.6,1.87,12.15,12.15,0,0,0-1.8,2.59,5.39,5.39,0,0,0-.5,2.3,4,4,0,0,0,1.15,3,4.25,4.25,0,0,0,3.1,1.12,4.18,4.18,0,0,0,3.24-1.44,5.38,5.38,0,0,0,1.3-3.74A6.7,6.7,0,0,0,76.5,34.2Z" transform="translate(-19.62 -23.54)"/><path class="cls-1" d="M114.37,72.36a7.89,7.89,0,0,1-1.22.07,9.63,9.63,0,0,1-2.77-.32A6.39,6.39,0,0,1,108.33,71a4.79,4.79,0,0,1-3.67,1.66,1.2,1.2,0,0,1-.29,0,1.87,1.87,0,0,0-.43,0l-2.38-2.23-.07,2.23H99a16.77,16.77,0,0,1-2.23-.14,6.6,6.6,0,0,1-1.87-.5,7.31,7.31,0,0,1-1.08-.5,6.77,6.77,0,0,1-1.3-1.08,9.55,9.55,0,0,1-1,1,6.57,6.57,0,0,1-.72.5,5.88,5.88,0,0,1-3,.72h-3l-2.88-3V65.09h.86a9.52,9.52,0,0,0,2.2-.18,1.69,1.69,0,0,0,1-.76,3.77,3.77,0,0,0,.36-1.22,11.43,11.43,0,0,0,.14-1.87V49.46q-2.16-1.8-2.16-3.31a1.9,1.9,0,0,1,1.3-1.8,3.3,3.3,0,0,0,.72-.43,1.7,1.7,0,0,0,.14-.94V33.55a1.37,1.37,0,0,0-.25-.76,1.27,1.27,0,0,0-.83-.18h-.65l-2.88-2.81V24.7h5.33a20.72,20.72,0,0,1,2.66.14,7.5,7.5,0,0,1,1.37.22,10,10,0,0,1,1.3.5,13.24,13.24,0,0,1,6.84-2,11.64,11.64,0,0,1,4.93,1.12,14.14,14.14,0,0,1,4.5,3.42q3.89,4,3.89,8.57a10.59,10.59,0,0,1-1.4,5.29,12.61,12.61,0,0,1-3.92,4.21,17.74,17.74,0,0,1,1.91,1.66,11.78,11.78,0,0,1,1.33,1.8A10.72,10.72,0,0,1,111.93,53q.14.79.25,2.2t.11,2.48v5.76a1.78,1.78,0,0,0,.18,1,1.17,1.17,0,0,0,.76.29l2.45,2.52v4.82Q114.81,72.29,114.37,72.36Zm-2-7h-1.15a4.28,4.28,0,0,1-1.33-.14.86.86,0,0,1-.54-.58,1.91,1.91,0,0,1-.22-1.08q-.15-1.44-.18-2.88t0-2.23V54.07a26.38,26.38,0,0,0-.18-3.1,8.16,8.16,0,0,0-.54-2.3,5.16,5.16,0,0,0-1.76-2.16,9.25,9.25,0,0,0-3.13-1.44,12.38,12.38,0,0,0,4.14-4.28,13,13,0,0,0,1.19-6A10.87,10.87,0,0,0,106,27.22a8.86,8.86,0,0,0-6.92-2.88,10.14,10.14,0,0,0-4,.76,13.45,13.45,0,0,0-3.72,2.56q-.8-.72-1.37-1.15a4.32,4.32,0,0,0-1.23-.65,6.51,6.51,0,0,0-1.48-.29q-.83-.07-2.2-.07H82.41v3.74h.79a11.61,11.61,0,0,1,2.05.14,2,2,0,0,1,1.16.58,2.25,2.25,0,0,1,.51,1.26,17.76,17.76,0,0,1,.11,2.2v11.3q0,.43-.29.43h-.15a1.09,1.09,0,0,1-.33,0l-.18,0a.89.89,0,0,0-1,1,1,1,0,0,0,.36.76,1.37,1.37,0,0,0,.95.32,1.09,1.09,0,0,0,1.09-.65,5.71,5.71,0,0,0,.29-2.16V33.84q0-3.24-.69-4.25t-3-1H83.2v-2.3a8.27,8.27,0,0,0,.94,0,6.07,6.07,0,0,1,.72,0,21,21,0,0,1,2.33.11,5.26,5.26,0,0,1,1.64.43,3.47,3.47,0,0,1,1.2.94,14.28,14.28,0,0,1,1.09,1.55,9.6,9.6,0,0,1,3.46-3.13A9.33,9.33,0,0,1,99,25a8.06,8.06,0,0,1,6.34,2.77,10.43,10.43,0,0,1,2.45,7.16q0,7.63-6.77,10.44,4,.72,5.51,2.52t1.55,5.76v5.62l.07,1.58.07,2.38a3.49,3.49,0,0,0,.68,2.41,4,4,0,0,0,2.48.54h.22v2a5.92,5.92,0,0,1-.79.07h-.58a6.81,6.81,0,0,1-2.7-.43,7,7,0,0,1-2.12-1.66,12.08,12.08,0,0,1-1.69,1.66,4.66,4.66,0,0,1-1.62.86V53.06a19.14,19.14,0,0,0-.18-2.92,3.85,3.85,0,0,0-.65-1.73,2.37,2.37,0,0,0-1.4-.83,11.24,11.24,0,0,0-2.45-.22h-1v.72a2.33,2.33,0,0,0,.5,0,1.2,1.2,0,0,1,.29,0,10.81,10.81,0,0,1,2.2.18,2.13,2.13,0,0,1,1.26.72,3.18,3.18,0,0,1,.58,1.55,20.39,20.39,0,0,1,.14,2.74V69.48a4.73,4.73,0,0,0,1.91-.47,11,11,0,0,0,2.12-1.69q.72.58,1.22.94a3.9,3.9,0,0,0,1,.54,5.71,5.71,0,0,0,1.15.25,12.81,12.81,0,0,0,1.48.07,8.59,8.59,0,0,0,.86,0l1.15-.11Zm-14.69.5q-3.38,0-3.38-3V48.38L93.57,48V60.84a18.87,18.87,0,0,0,.18,3.24,3.21,3.21,0,0,0,.76,1.51,3.41,3.41,0,0,0,2.59.94v2.16h-.72a7.48,7.48,0,0,1-3-.54,7.09,7.09,0,0,1-2.45-2,7,7,0,0,1-2.48,2,9.33,9.33,0,0,1-3.56.54H83.27V66.53a5.45,5.45,0,0,0,3.49-1,4.09,4.09,0,0,0,1-3.17V48l-.72.36V61.78A4.9,4.9,0,0,1,86.29,65q-.79.86-3.1.86h-.72v3.53q.94.07,1.3.07h.86a11,11,0,0,0,3.85-.54,5.77,5.77,0,0,0,2.41-1.76A8.05,8.05,0,0,0,93.31,69a8.36,8.36,0,0,0,3.06.43h1.3Zm4.54-33.48a8.65,8.65,0,0,0-.43-2.16,3.36,3.36,0,0,0-3.6-2.66,4.25,4.25,0,0,0-3.35,1.33,5.49,5.49,0,0,0-1.19,3.78V43.34a9.6,9.6,0,0,0,.29,2.92A1.07,1.07,0,0,0,95,47l.14-.07a1.48,1.48,0,0,0,.76-.36.92.92,0,0,0,.32-.72q0-.86-1-.86l-.58.07c-.24,0-.36-.36-.36-1.08V33.48q0-5.11,3.74-5.11a2.71,2.71,0,0,1,2.7,1.76q.76,1.77.76,6.44,0,3.89-.9,5.36a3.37,3.37,0,0,1-3.13,1.48H97a3.05,3.05,0,0,1-.58-.07v.94H97a7.22,7.22,0,0,0,2.3-.36A4.17,4.17,0,0,0,101,43a4.67,4.67,0,0,0,1-2.3,28.14,28.14,0,0,0,.29-4.75Q102.28,33.48,102.21,32.4Zm-1.69,0a.92.92,0,0,0-1-.83q-1.66,0-1.66,2.59v8.42a2.2,2.2,0,0,0,2.23-1.33,14.47,14.47,0,0,0,.58-5A24.39,24.39,0,0,0,100.51,32.36Zm0,21.49v-.79a2.11,2.11,0,0,0-.32-1.37A1.68,1.68,0,0,0,99,51.33a1,1,0,0,0-.86.29,1.92,1.92,0,0,0-.22,1.08v12c.19.29.33.49.43.61a4.67,4.67,0,0,0,.72.61l.94.72.58.43Z" transform="translate(-19.62 -23.54)"/><path class="cls-1" d="M144.83,57.31H120.64l-3.1-3.41V46.44H142.6l2.23,2.68ZM142,53.5V47.23H118.33V53.5Zm-1.08-1H119.27V48.24h21.67Z" transform="translate(-19.62 -23.54)"/><path class="cls-1" d="M178.6,52h-1.8a1.8,1.8,0,0,0-1.33.36,2.56,2.56,0,0,0-.32,1.58V73.44l-4.82-3.31a9.3,9.3,0,0,1-7,3.24,11.86,11.86,0,0,1-6-1.58,15,15,0,0,1-4.79-4.54,25,25,0,0,1-3.31-7.16,40.78,40.78,0,0,1-1.55-9.47q-2.09-2.16-2.09-3.67a1.93,1.93,0,0,1,.36-1.15,1.32,1.32,0,0,1,.94-.58l.43-.07a1.18,1.18,0,0,0,.36-.07c.1,0,.19-.34.29-.86a42.38,42.38,0,0,1,1.58-8.46,26.08,26.08,0,0,1,2.88-6.48,13.24,13.24,0,0,1,4-4.14,9,9,0,0,1,4.93-1.44,10,10,0,0,1,6,2.3l2-1.66,3.17,3.17a7.94,7.94,0,0,0-.43,1.37,5.67,5.67,0,0,0-.07.94,4.41,4.41,0,0,0,.29,1.51l1,2.81a7.53,7.53,0,0,1,.43,2.52,6.2,6.2,0,0,1-1.37,4.14,4.48,4.48,0,0,1-3.6,1.62,7.15,7.15,0,0,1-2.81-.58,8.42,8.42,0,0,1-2.38-1.48A7,7,0,0,1,162,38.23a5.57,5.57,0,0,1-.61-2.52,7.1,7.1,0,0,1,.11-1.3,13.83,13.83,0,0,1,.54-1.8,1.29,1.29,0,0,0-.58-.14q-1.08,0-1.08,2.45V46.08l.86,1V43.63h1.66a18.87,18.87,0,0,1,7.13,1,10.42,10.42,0,0,1,2.16-.61,22.11,22.11,0,0,1,3.31-.18h.58l3.17,3V52Zm-8.35-18.48a15.66,15.66,0,0,0-.86-2.66q-.43-1.22-.65-2.09a6.82,6.82,0,0,1-.22-1.66,3.71,3.71,0,0,1,0-.54,5.18,5.18,0,0,0,0-.68l-1.94,1.66a12.32,12.32,0,0,0-2.77-2.3,5.4,5.4,0,0,0-2.63-.65,8.52,8.52,0,0,0-5.8,2.34,16.85,16.85,0,0,0-4.28,6.52q-.43,1.15-.86,2.59t-.76,3q-.32,1.55-.54,3.06t-.29,2.74q-.15,1.58-.65,1.58a.41.41,0,0,1-.29-.07l-.43-.14a.86.86,0,0,0-.86.86q0,1.15,1.22,1.15a1.15,1.15,0,0,0,1.12-.65,10.89,10.89,0,0,0,.61-2.81q.29-2.52.5-4.14t.5-2.84a23,23,0,0,1,.65-2.27q.36-1,.94-2.41a14.89,14.89,0,0,1,4-5.69,7.72,7.72,0,0,1,5-2.09q3,0,5.62,3.31l1.15-1.08.07.43.14.86c0,.19.1.4.14.61a4.84,4.84,0,0,0,.29.83,31.27,31.27,0,0,1,1,3,8,8,0,0,1,.32,2.16,3.69,3.69,0,0,1-1,2.66,3.34,3.34,0,0,1-2.48,1.08,3.1,3.1,0,0,1-2.34-.94,3.58,3.58,0,0,1-.9-2.59,5,5,0,0,1,.29-1.73,18.07,18.07,0,0,1,1.3-2.52q-1.22-3.17-4.18-3.17A3.6,3.6,0,0,0,157.1,30a11.56,11.56,0,0,0-1,5.65v9q0,3.6,1.73,3.6a1.11,1.11,0,0,0,1.08-1.08,1.2,1.2,0,0,0-.25-.76.75.75,0,0,0-.61-.32l-.72.22a.21.21,0,0,1-.14.07.28.28,0,0,1-.29-.18,2.84,2.84,0,0,1-.07-.83V34.85q0-5.9,3.67-5.9a3.56,3.56,0,0,1,3.38,2.45l-.29.43a14.33,14.33,0,0,0-1,2.16,5.9,5.9,0,0,0-.25,1.8,4.06,4.06,0,0,0,1.12,3,3.88,3.88,0,0,0,2.92,1.15,3.92,3.92,0,0,0,3-1.3,4.27,4.27,0,0,0,1.22-3A10,10,0,0,0,170.25,33.55Zm5.54,11.09h-1.22a9.52,9.52,0,0,0-3.28.43A6.4,6.4,0,0,0,169,46.73a8.3,8.3,0,0,0-2.7-1.76,9.55,9.55,0,0,0-3.42-.54H162v3.89a4.29,4.29,0,0,1,1.37.14,1.12,1.12,0,0,1,.58.65,6,6,0,0,1,.36,2q.07,1.33.07,4.5,0,2.74-.07,4.32a22.13,22.13,0,0,1-.29,2.81q-.43,3.17-3.31,3.17a4.21,4.21,0,0,1-1.87-.5,4.59,4.59,0,0,1-1-.79,2.92,2.92,0,0,1-.61-1.12A7.66,7.66,0,0,1,157,61.7q-.07-1.08-.14-2.74l-.07-2.23V49.25l-.72-.36V57.1q0,1.8.07,3.1a17.24,17.24,0,0,0,.22,2.09,5,5,0,0,0,1.33,3.13,4,4,0,0,0,3,1.12,4.18,4.18,0,0,0,2.92-1,4.69,4.69,0,0,0,1.4-2.88q.14-1.08.22-3.1t.07-5.54q0-1.87-.11-3.1a7.07,7.07,0,0,0-.4-1.94,1.93,1.93,0,0,0-.79-1,3.2,3.2,0,0,0-1.3-.36V45.36a3.16,3.16,0,0,1,.58-.07h.5a5.18,5.18,0,0,1,4.75,3,12.93,12.93,0,0,1,1.33-1.51,5.32,5.32,0,0,1,1.26-.9,4.6,4.6,0,0,1,1.48-.43,16.22,16.22,0,0,1,2.05-.11h.5v2.23q-1.23.07-1.73.14a2.3,2.3,0,0,0-1,.43A2.85,2.85,0,0,0,171.29,50a21.06,21.06,0,0,0-.32,4.43V68.11l-2.88-2.45a10.79,10.79,0,0,1-3.31,3,8.29,8.29,0,0,1-3.89.86q-10.87,0-11.74-20.59l-.65.36v.5q0,1.3.11,2.66t.4,3q1.3,7.56,4.21,11.16A9.53,9.53,0,0,0,161,70.2a8.36,8.36,0,0,0,3.6-.68,14.2,14.2,0,0,0,3.46-2.63l3.74,3V53.35a8.77,8.77,0,0,1,.58-3.92,2.54,2.54,0,0,1,2.38-1l.36.07h.65Zm-12.28,9.14a8,8,0,0,0-.22-1.69,5.33,5.33,0,0,0-.5-1.26,14,14,0,0,0-1-1.44l-.22.65-.58.5a1.7,1.7,0,0,0-.47.86,7.83,7.83,0,0,0-.11,1.51l-.07,5.33v.43a21.49,21.49,0,0,0,.29,4.46,1.23,1.23,0,0,0,1.22,1.08,1.06,1.06,0,0,0,.83-.36,2.68,2.68,0,0,0,.5-1.22,16.15,16.15,0,0,0,.25-2.38q.07-1.51.07-3.89Q163.55,54.79,163.51,53.78Z" transform="translate(-19.62 -23.54)"/><path class="cls-1" d="M210,64.37l-.58,2.38q-.22,1-.36,2.12a18.78,18.78,0,0,0-.14,2.41v.58a5.69,5.69,0,0,0,.07.72q-.86-.5-1.84-1.15a14.77,14.77,0,0,1-1.62-1.22l-.32.22-.25.14q-1.23.79-2.05,1.3a8.84,8.84,0,0,1-1.51.76,5.72,5.72,0,0,1-1.37.32,15.09,15.09,0,0,1-1.55.07,8.26,8.26,0,0,1-3.1-.58,14.24,14.24,0,0,1-3.17-1.87q-1,.65-1.48.9a11.47,11.47,0,0,1-1.19.54,5.85,5.85,0,0,1-1.44.47,14.93,14.93,0,0,1-2.16.11h-2.66l-3-3.1V64.94h.79a15.92,15.92,0,0,0,2.12-.11,1.86,1.86,0,0,0,1.15-.54,2.26,2.26,0,0,0,.5-1.26,18.41,18.41,0,0,0,.11-2.27V49.46a12.69,12.69,0,0,1-1.76-1.94,2.79,2.79,0,0,1-.54-1.58A1.28,1.28,0,0,1,183,45a6,6,0,0,1,1.22-.79,1.33,1.33,0,0,0,.65-.47,2,2,0,0,0,.14-.9V33.55a1.43,1.43,0,0,0-.18-.9,1.43,1.43,0,0,0-.9-.18,2.17,2.17,0,0,1-.65-.07l-3-2.88v-5h1.51q2.52,0,4,0a14.36,14.36,0,0,1,2.23.18,8.59,8.59,0,0,1,1.76.5,6.52,6.52,0,0,1,1.48.79,12.9,12.9,0,0,1,6.12-1.66,14.09,14.09,0,0,1,3.35.43A13.09,13.09,0,0,1,204,26q.65-.58,1.08-.9l1.15-.83L209,26.93a3.86,3.86,0,0,0-.65,1.4,8.35,8.35,0,0,0-.14,1.69,5.61,5.61,0,0,0,.22,1.73l.79,2.38q.22.65.36,1.26a5.64,5.64,0,0,1-1.48,5.18,6.49,6.49,0,0,1-1.69,1.22,4.44,4.44,0,0,1-2,.47,5.85,5.85,0,0,1-2.52-.58,6.8,6.8,0,0,1-2.12-1.55,8.56,8.56,0,0,1-1.48-2.2,6,6,0,0,1-.58-2.59,6.87,6.87,0,0,1,.07-1,7.05,7.05,0,0,1,.36-1.26.78.78,0,0,0-.43-.14q-1.3,0-1.3,3.46v6h5.4l1.87,2.45-2.3,2.16,3,3.6h-7.92v13.1q0,1.08.65,1.08a1.82,1.82,0,0,0,.94-.4,8.23,8.23,0,0,0,1.15-1l-.29-.43A9.51,9.51,0,0,1,197.75,61a5.05,5.05,0,0,1-.22-1.58A5.12,5.12,0,0,1,199,55.62a5,5,0,0,1,3.71-1.48,6.65,6.65,0,0,1,2.88.65A9.14,9.14,0,0,1,208,56.48a7.6,7.6,0,0,1,1.69,2.45,7.24,7.24,0,0,1,.61,2.92A12.05,12.05,0,0,1,210,64.37Zm-3.42-30.82q-.18-.86-.47-1.87t-.36-1.48a10.46,10.46,0,0,1-.22-1.22c0-.41-.1-.84-.14-1.3a15.62,15.62,0,0,1-.07-1.62l-.43.29-.72.58-.58.4-.36.25a9.16,9.16,0,0,0-6.11-2.52,8,8,0,0,0-3.12.61,20.27,20.27,0,0,0-3.55,2.05q-.72-.65-1-.9t-.9-.61a9.29,9.29,0,0,0-1.87-.72,13.22,13.22,0,0,0-2.87-.22h-2.65v3.82h.42a15.7,15.7,0,0,1,2.25.11,2.32,2.32,0,0,1,1.15.54,1.75,1.75,0,0,1,.58,1,10.65,10.65,0,0,1,.14,2.12V44.42c0,.38-.1.58-.29.58a1.35,1.35,0,0,1-.43-.07h-.22a1.1,1.1,0,0,0-.76.29.92.92,0,0,0-.32.72q0,1,1.15,1a1.3,1.3,0,0,0,1.22-.61,4.92,4.92,0,0,0,.36-2.27V32.54a4.61,4.61,0,0,0-.83-3.17,4.33,4.33,0,0,0-3.13-.86h-.65V26.06c.43,0,.74-.07.94-.07h.72a17.72,17.72,0,0,1,2.45.14,5.08,5.08,0,0,1,1.73.54,4,4,0,0,1,1.22,1,14.54,14.54,0,0,1,1.08,1.66,10.77,10.77,0,0,1,3.42-2.63,8.71,8.71,0,0,1,3.85-1,9.09,9.09,0,0,1,6,2.74l1.44-1.15a1.78,1.78,0,0,0,.07.65l.14,1.19a9.12,9.12,0,0,0,.22,1.19,2.83,2.83,0,0,1,.14.68,9.61,9.61,0,0,0,.43,1.62,10,10,0,0,1,.36,2.23,3.71,3.71,0,0,1-1.12,2.66,3.47,3.47,0,0,1-2.56,1.15,3,3,0,0,1-2.27-.94,3.19,3.19,0,0,1-.9-2.3,7.27,7.27,0,0,1,2.23-4.82A9.4,9.4,0,0,0,199,28.62a5.13,5.13,0,0,0-2.3-.47q-4.61,0-4.61,5.76V44.85q0,2.23,1.37,2.23a1.23,1.23,0,0,0,1.22-1.22,1.2,1.2,0,0,0-.25-.76.75.75,0,0,0-.61-.32l-.58.07c-.34,0-.5-.19-.5-.58V34.2q0-5.4,4-5.4a4.29,4.29,0,0,1,1.94.43,7.56,7.56,0,0,1,1.87,1.44,10.41,10.41,0,0,0-1.62,2.45,5.73,5.73,0,0,0-.47,2.3,3.93,3.93,0,0,0,4,4,4.15,4.15,0,0,0,3-1.3,4.31,4.31,0,0,0,1.3-3.17A7.19,7.19,0,0,0,206.57,33.55Zm-.79,22.72a3.85,3.85,0,0,0-3.2-1.4,4.05,4.05,0,0,0-3,1.26,4.32,4.32,0,0,0-1.22,3.13,4.5,4.5,0,0,0,.29,1.62,11.3,11.3,0,0,0,1.08,2l.36.58a6.64,6.64,0,0,1-2,1.69,4.86,4.86,0,0,1-2.38.68,2.64,2.64,0,0,1-1.69-.54,2.51,2.51,0,0,1-.9-1.4,9,9,0,0,1-.22-1.22,18.13,18.13,0,0,1-.07-1.87V48.24l-.65-.36v14.4a5.5,5.5,0,0,0,.07,1c0,.26.1.49.14.68a3.66,3.66,0,0,0,.29.72,3,3,0,0,0,3.1,1.8q2.88,0,5.18-3A7.1,7.1,0,0,1,199,59a3.45,3.45,0,0,1,1-2.48,3.28,3.28,0,0,1,2.45-1,3.43,3.43,0,0,1,2.7,1.19,4.47,4.47,0,0,1,1,3.06,13,13,0,0,1-.07,1.33q-.07.68-.22,1.48-.36,2.3-.43,2.74l-.14,1.37-.07.72-2.09-1.58q-3.67,3.67-7.42,3.67a7.08,7.08,0,0,1-3.28-.76,12.27,12.27,0,0,1-3.13-2.48q-.72.65-1.33,1.12a4.92,4.92,0,0,1-1.3.72,6.92,6.92,0,0,1-1.55.36,16.43,16.43,0,0,1-2,.11h-.58a7.54,7.54,0,0,1-.86-.07V66.24l1.58-.11a3.41,3.41,0,0,0,1.15-.4A2.6,2.6,0,0,0,186,64.22a12.19,12.19,0,0,0,.36-3.6V47.88l-.71.36v13a10.89,10.89,0,0,1-.18,2.2,2.26,2.26,0,0,1-2,1.94,16.33,16.33,0,0,1-2.38.25v3.53a9.56,9.56,0,0,0,1,.07h.72a11.84,11.84,0,0,0,4.73-.79,2.14,2.14,0,0,0,.86-.47l1-.9a8.49,8.49,0,0,0,6.45,3,8.22,8.22,0,0,0,3.34-.65,15.92,15.92,0,0,0,3.49-2.3l.5-.43,2.74,2v-.22c0-.62,0-1.12,0-1.48s.08-.9.18-1.62l.5-3a11,11,0,0,0,.22-2.16A6.16,6.16,0,0,0,205.78,56.27ZM194.29,43v.72h5.33l-1.22,1.51.94,1.66h-3.46v.65h4.68l-1.22-2.3,1.8-2.23Z" transform="translate(-19.62 -23.54)"/><path class="cls-1" d="M243.18,32.47a2.56,2.56,0,0,0-1.58.36,1.62,1.62,0,0,0-.43,1.3v9.79l.22,1.15.72,1.08a3.17,3.17,0,0,1,.43,1.51,3,3,0,0,1-.36,1.3l-.65,1-.29.72-.07.79-.22,13v1.15a28.7,28.7,0,0,0,.25,3.53q.25,2,.61,3.67l-1.19-.36a5.81,5.81,0,0,1-.9-.36q-.43-.22-.94-.5l-1.22-.72a5.31,5.31,0,0,0-.5-.36,9,9,0,0,1-3.82,2.09l-3.74-2.66c0-.43.08-.77.11-1s0-.48,0-.72a18.24,18.24,0,0,0-.29-3,19.88,19.88,0,0,0-.73-3l-3.28-9.58.05,11.74a1.53,1.53,0,0,0,.14.79,1,1,0,0,0,.72.29.15.15,0,0,1,.11,0s.08,0,.18,0L229,67.9l.22,4.68h-.79a11.47,11.47,0,0,1-6.19-1.8,9.53,9.53,0,0,1-2.45,1.55,7.05,7.05,0,0,1-2.66.47c-.38,0-.72,0-1,0s-.77-.08-1.44-.18l-2.74-2.66V64.8h1q2.3,0,3.06-.86t.76-3.46V50.18a9.29,9.29,0,0,1-1.69-2.12,3.8,3.8,0,0,1-.47-1.76,1.71,1.71,0,0,1,.29-1.08A3,3,0,0,1,216,44.5a1.5,1.5,0,0,0,.65-.43s0-.17,0-.36a6.08,6.08,0,0,0,0-.72V34.27a2.36,2.36,0,0,0-.25-1.37,1.86,1.86,0,0,0-1.19-.36,1.82,1.82,0,0,0-.65-.07l-2.45-2.74v-4.9l.93-.07,2.87-.14a.78.78,0,0,0,.25,0,.79.79,0,0,1,.25,0,10.86,10.86,0,0,1,2.65.32,10.34,10.34,0,0,1,2.37.9,7.15,7.15,0,0,1,1.94-1.15,5.92,5.92,0,0,1,2.22-.43,2.16,2.16,0,0,1,1.43.65l1.58,1.3.16-1.44,4.08.14,1.8.11a2.94,2.94,0,0,1,1.08.32,5.7,5.7,0,0,1,1.48-.5,12.6,12.6,0,0,1,2.2-.14c.53,0,.94,0,1.22,0a8.56,8.56,0,0,1,1.08.18l2.45,2.52v5.11ZM225.68,66.1a4.38,4.38,0,0,1-2.84-.76,4.17,4.17,0,0,1-.68-2.84v-14l-.72-.29V60.91q0,1.73.11,2.84a4.75,4.75,0,0,0,.43,1.73,2,2,0,0,0,.9.9,4.27,4.27,0,0,0,1.58.36h.43v1.8l-.65.11a3.07,3.07,0,0,1-.5,0,5,5,0,0,1-2.2-.54,6.23,6.23,0,0,1-1.91-1.4,7.78,7.78,0,0,1-5.4,1.87,4,4,0,0,1-.79-.07V66.31a7.57,7.57,0,0,0,2.23-.4,2.93,2.93,0,0,0,1.37-1,4.46,4.46,0,0,0,.72-1.84,16,16,0,0,0,.22-2.88v-12l-.65.29v10.8a29.21,29.21,0,0,1-.14,3.2,4.68,4.68,0,0,1-.58,1.94,2.19,2.19,0,0,1-1.26.94,7.76,7.76,0,0,1-2.2.25h-.43v3.67l.9.11a6,6,0,0,0,.68,0,9.12,9.12,0,0,0,2.81-.4,11.81,11.81,0,0,0,2.52-1.19,7,7,0,0,0,2,1.22,6.29,6.29,0,0,0,2.05.29h1.51l.5-.07Zm6.19-20.81a2.68,2.68,0,0,0-.94.43l-4.75-16.13a10.46,10.46,0,0,1-.43-2,16.27,16.27,0,0,1-.14-2v-.29a6.45,6.45,0,0,0-4.68,2.23,5.12,5.12,0,0,0-2.2-1.62,9.85,9.85,0,0,0-3.35-.47h-1.08a7.39,7.39,0,0,0-1.22.14V28.8h.43a6.51,6.51,0,0,1,2,.22,2.68,2.68,0,0,1,1.12.79,7.79,7.79,0,0,1,.4.76,3.42,3.42,0,0,1,.25,1c0,.29.08.53.11.72s0,.43.07.72,0,.65,0,1.08v8.78a7.56,7.56,0,0,1-.14,1.8.9.9,0,0,1-.5.65l-.65.14a.74.74,0,0,0-.65.79.86.86,0,0,0,.86.86,1.42,1.42,0,0,0,1.26-1,5.74,5.74,0,0,0,.47-2.48V32.9q0-.72,0-1.19a3.41,3.41,0,0,0-.14-.79l-.25-.76a3,3,0,0,0-1.37-1.58,5.54,5.54,0,0,0-2.59-.5v-1.8l.9-.11a7,7,0,0,1,.76,0q4,0,5.54,2.38a7.71,7.71,0,0,1,1.62-1.58,6.94,6.94,0,0,1,2.27-.94,17.12,17.12,0,0,0,.25,1.73q.18.94.32,1.51l.22.72,4.25,15a5.7,5.7,0,0,0,.68,1.51,1.06,1.06,0,0,0,.9.43h.14a1.64,1.64,0,0,0,.76-.32.75.75,0,0,0,.32-.61Q232.67,45.29,231.88,45.29Zm-10.22-9.58-.22,8.93v.07q0,2.45,1.44,2.45a.83.83,0,0,0,.94-.94.71.71,0,0,0-.36-.65.49.49,0,0,0-.36-.14H223l-.29.07h-.14q-.29,0-.29-.43V40.54l1.3,3.67.86.43Zm16.45,32c-.07-.38-.13-.78-.18-1.19a10.69,10.69,0,0,1-.07-1.26V48.67l-.65-.43V62.93l-.07,1.3v.36q0,1.23.07,1.94t.22,1.58a10.6,10.6,0,0,1-1.58-.68,10.46,10.46,0,0,1-1.51-1.12l-.43-.36-.36.29-.94.79a7.09,7.09,0,0,0-.58.5,4.85,4.85,0,0,1-.79.58,23.93,23.93,0,0,0-.29-2.52,18.56,18.56,0,0,0-.79-3l-5-15.84-.43.86,5,16a11.89,11.89,0,0,1,.53,2.45,20.57,20.57,0,0,1,.18,2.45v.65a6.05,6.05,0,0,0,1.37-.54,9.51,9.51,0,0,0,1.58-1.26l.5-.36.36.29a9.22,9.22,0,0,0,2.12,1.37,11.13,11.13,0,0,0,2,.5C238.26,68.62,238.18,68.14,238.1,67.75Zm-5.87-35L229.5,30.1l2.74,9.07Zm9.14-7.27-.79-.11a8.93,8.93,0,0,0-3.31.32,3.65,3.65,0,0,0-1.51,1.22,5.7,5.7,0,0,0-.76-.76,2.46,2.46,0,0,0-1-.47,9.22,9.22,0,0,0-1.37-.22q-.79-.07-1.94-.07h-1v3.53a2.53,2.53,0,0,1,.45-.07h.27a2.68,2.68,0,0,1,2.09.72,1.62,1.62,0,0,1,.22.5q.07.29.14.65V44.28l.65.5.22-13.1V31.1a3.22,3.22,0,0,0-.68-2.41,4.49,4.49,0,0,0-2.7-.68V26.14h1.15a6.85,6.85,0,0,1,2.59.4A3.83,3.83,0,0,1,235.76,28a4.33,4.33,0,0,1,1.48-1.48,4.63,4.63,0,0,1,2.27-.47h.58a3.17,3.17,0,0,1,.58.07V28A3.51,3.51,0,0,0,238,29.12a5.59,5.59,0,0,0-.76,3.35V44.28a3.12,3.12,0,0,0,.4,1.66,1.19,1.19,0,0,0,1,.65.83.83,0,0,0,.94-.94q0-.79-.86-.79a1.21,1.21,0,0,0-.29,0,2.43,2.43,0,0,0-.43.18l-.07-.36.07-.65V32.18a3.92,3.92,0,0,1,.68-2.63,3.15,3.15,0,0,1,2.41-.76h.22Zm-8.57,21.67v3.46l-.86-2.38h-.72l2,7,.29-8.42Z" transform="translate(-19.62 -23.54)"/><path class="cls-1" d="M275.51,64.37l-.58,2.38q-.22,1-.36,2.12a18.78,18.78,0,0,0-.14,2.41v.58a5.69,5.69,0,0,0,.07.72q-.86-.5-1.84-1.15A14.73,14.73,0,0,1,271,70.2l-.32.22-.25.14q-1.22.79-2.05,1.3a8.85,8.85,0,0,1-1.51.76,5.71,5.71,0,0,1-1.37.32A15.12,15.12,0,0,1,264,73a8.26,8.26,0,0,1-3.1-.58,14.23,14.23,0,0,1-3.17-1.87q-1,.65-1.48.9a11.58,11.58,0,0,1-1.19.54,5.86,5.86,0,0,1-1.44.47,14.94,14.94,0,0,1-2.16.11H248.8l-3-3.1V64.94h.79a15.92,15.92,0,0,0,2.12-.11,1.86,1.86,0,0,0,1.15-.54,2.27,2.27,0,0,0,.5-1.26,18.65,18.65,0,0,0,.11-2.27V49.46a12.74,12.74,0,0,1-1.76-1.94,2.79,2.79,0,0,1-.54-1.58,1.28,1.28,0,0,1,.29-.94,6,6,0,0,1,1.22-.79,1.33,1.33,0,0,0,.65-.47,2,2,0,0,0,.14-.9V33.55a1.43,1.43,0,0,0-.18-.9,1.43,1.43,0,0,0-.9-.18,2.17,2.17,0,0,1-.65-.07l-3-2.88v-5h1.51q2.52,0,4,0a14.37,14.37,0,0,1,2.23.18,8.61,8.61,0,0,1,1.76.5,6.51,6.51,0,0,1,1.48.79A12.91,12.91,0,0,1,263,24.33a14.1,14.1,0,0,1,3.35.43,13.11,13.11,0,0,1,3.2,1.22q.65-.58,1.08-.9l1.15-.83,2.74,2.66a3.85,3.85,0,0,0-.65,1.4,8.35,8.35,0,0,0-.14,1.69,5.6,5.6,0,0,0,.22,1.73l.79,2.38q.22.65.36,1.26a5.5,5.5,0,0,1-.29,3.38,5.47,5.47,0,0,1-1.19,1.8,6.49,6.49,0,0,1-1.69,1.22,4.45,4.45,0,0,1-2,.47,5.84,5.84,0,0,1-2.52-.58,6.79,6.79,0,0,1-2.12-1.55,8.57,8.57,0,0,1-1.48-2.2,6,6,0,0,1-.58-2.59,6.93,6.93,0,0,1,.07-1,7.09,7.09,0,0,1,.36-1.26.78.78,0,0,0-.43-.14q-1.29,0-1.3,3.46v6h5.4l1.87,2.45-2.3,2.16,3,3.6H261.9v13.1q0,1.08.65,1.08a1.82,1.82,0,0,0,.94-.4,8.21,8.21,0,0,0,1.15-1l-.29-.43A9.51,9.51,0,0,1,263.27,61a5.07,5.07,0,0,1-.22-1.58,5.12,5.12,0,0,1,1.48-3.78,5,5,0,0,1,3.71-1.48,6.66,6.66,0,0,1,2.88.65,9.13,9.13,0,0,1,2.45,1.69,7.58,7.58,0,0,1,1.69,2.45,7.24,7.24,0,0,1,.61,2.92A12.09,12.09,0,0,1,275.51,64.37Zm-3.42-30.82c-.12-.58-.28-1.2-.47-1.87s-.26-1.07-.36-1.48A10.46,10.46,0,0,1,271,29q-.07-.61-.14-1.3a15.79,15.79,0,0,1-.07-1.62l-.43.29-.72.58-.58.4-.36.25a9.17,9.17,0,0,0-6.12-2.52,8,8,0,0,0-3.12.61A20.31,20.31,0,0,0,256,27.72q-.72-.65-1-.9t-.9-.61a9.31,9.31,0,0,0-1.87-.72,13.22,13.22,0,0,0-2.87-.22h-2.65v3.82h.42a15.69,15.69,0,0,1,2.25.11,2.32,2.32,0,0,1,1.15.54,1.75,1.75,0,0,1,.58,1,10.64,10.64,0,0,1,.14,2.12V44.42c0,.38-.1.58-.29.58a1.35,1.35,0,0,1-.43-.07h-.22a1.11,1.11,0,0,0-.76.29.92.92,0,0,0-.32.72q0,1,1.15,1a1.3,1.3,0,0,0,1.22-.61,4.93,4.93,0,0,0,.36-2.27V32.54a4.61,4.61,0,0,0-.83-3.17,4.33,4.33,0,0,0-3.13-.86h-.65V26.06c.43,0,.74-.07.94-.07h.72a17.73,17.73,0,0,1,2.45.14,5.09,5.09,0,0,1,1.73.54,4,4,0,0,1,1.22,1,14.54,14.54,0,0,1,1.08,1.66,10.76,10.76,0,0,1,3.42-2.63,8.71,8.71,0,0,1,3.85-1,9.09,9.09,0,0,1,6,2.74l1.44-1.15a1.76,1.76,0,0,0,.07.65c0,.38.1.78.14,1.19a9.28,9.28,0,0,0,.22,1.19,2.82,2.82,0,0,1,.14.68,9.65,9.65,0,0,0,.43,1.62,9.93,9.93,0,0,1,.36,2.23,3.71,3.71,0,0,1-1.12,2.66,3.47,3.47,0,0,1-2.56,1.15,3,3,0,0,1-2.27-.94,3.19,3.19,0,0,1-.9-2.3,7.27,7.27,0,0,1,2.23-4.82,9.38,9.38,0,0,0-2.38-2.05,5.13,5.13,0,0,0-2.3-.47q-4.61,0-4.61,5.76V44.85q0,2.23,1.37,2.23a1.23,1.23,0,0,0,1.22-1.22,1.2,1.2,0,0,0-.25-.76.76.76,0,0,0-.61-.32l-.58.07c-.34,0-.5-.19-.5-.58V34.2q0-5.4,4-5.4a4.29,4.29,0,0,1,1.94.43,7.58,7.58,0,0,1,1.87,1.44,10.38,10.38,0,0,0-1.62,2.45,5.71,5.71,0,0,0-.47,2.3,3.93,3.93,0,0,0,4,4,4.15,4.15,0,0,0,3-1.3,4.31,4.31,0,0,0,1.3-3.17A7.19,7.19,0,0,0,272.09,33.55Zm-.79,22.72a3.85,3.85,0,0,0-3.2-1.4,4.05,4.05,0,0,0-3,1.26,4.32,4.32,0,0,0-1.22,3.13,4.5,4.5,0,0,0,.29,1.62,11.27,11.27,0,0,0,1.08,2l.36.58a6.64,6.64,0,0,1-2,1.69,4.85,4.85,0,0,1-2.38.68,2.65,2.65,0,0,1-1.69-.54,2.51,2.51,0,0,1-.9-1.4,9,9,0,0,1-.22-1.22,18,18,0,0,1-.07-1.87V48.24l-.65-.36v14.4a5.54,5.54,0,0,0,.07,1c0,.26.1.49.14.68a3.64,3.64,0,0,0,.29.72,3.05,3.05,0,0,0,3.1,1.8q2.88,0,5.18-3A7.09,7.09,0,0,1,264.56,59a3.45,3.45,0,0,1,1-2.48,3.28,3.28,0,0,1,2.45-1,3.43,3.43,0,0,1,2.7,1.19,4.47,4.47,0,0,1,1,3.06,12.76,12.76,0,0,1-.07,1.33q-.07.68-.22,1.48-.36,2.3-.43,2.74l-.14,1.37-.07.72-2.09-1.58q-3.67,3.67-7.42,3.67a7.08,7.08,0,0,1-3.28-.76,12.26,12.26,0,0,1-3.13-2.48q-.72.65-1.33,1.12a4.91,4.91,0,0,1-1.3.72,6.94,6.94,0,0,1-1.55.36,16.44,16.44,0,0,1-2,.11h-.58a7.51,7.51,0,0,1-.86-.07V66.24l1.58-.11a3.42,3.42,0,0,0,1.15-.4,2.61,2.61,0,0,0,1.51-1.51,12.21,12.21,0,0,0,.36-3.6V47.88l-.71.36v13a10.89,10.89,0,0,1-.18,2.2,2.25,2.25,0,0,1-2,1.94,16.31,16.31,0,0,1-2.38.25v3.53a9.55,9.55,0,0,0,1,.07h.72a11.84,11.84,0,0,0,4.73-.79,2.14,2.14,0,0,0,.86-.47l1-.9a8.5,8.5,0,0,0,6.45,3,8.22,8.22,0,0,0,3.34-.65,15.9,15.9,0,0,0,3.49-2.3l.5-.43,2.74,2v-.22c0-.62,0-1.12,0-1.48s.08-.9.18-1.62l.5-3a11,11,0,0,0,.22-2.16A6.16,6.16,0,0,0,271.3,56.27ZM259.81,43v.72h5.33l-1.22,1.51.94,1.66H261.4v.65h4.68l-1.22-2.3,1.8-2.23Z" transform="translate(-19.62 -23.54)"/><path class="cls-1" d="M310,72.36a7.89,7.89,0,0,1-1.22.07,9.64,9.64,0,0,1-2.77-.32A6.4,6.4,0,0,1,303.95,71a4.79,4.79,0,0,1-3.67,1.66,1.21,1.21,0,0,1-.29,0,1.87,1.87,0,0,0-.43,0l-2.38-2.23-.07,2.23h-2.52a16.75,16.75,0,0,1-2.23-.14,6.6,6.6,0,0,1-1.87-.5,7.31,7.31,0,0,1-1.08-.5,6.76,6.76,0,0,1-1.3-1.08,9.65,9.65,0,0,1-1,1,6.54,6.54,0,0,1-.72.5,5.87,5.87,0,0,1-3,.72h-3l-2.88-3V65.09h.86a9.51,9.51,0,0,0,2.2-.18,1.69,1.69,0,0,0,1-.76,3.78,3.78,0,0,0,.36-1.22,11.43,11.43,0,0,0,.14-1.87V49.46q-2.16-1.8-2.16-3.31a1.9,1.9,0,0,1,1.3-1.8,3.28,3.28,0,0,0,.72-.43,1.7,1.7,0,0,0,.14-.94V33.55a1.38,1.38,0,0,0-.25-.76,1.27,1.27,0,0,0-.83-.18h-.65l-2.88-2.81V24.7h5.33a20.72,20.72,0,0,1,2.66.14,7.51,7.51,0,0,1,1.37.22,10.09,10.09,0,0,1,1.3.5,13.25,13.25,0,0,1,6.84-2,11.64,11.64,0,0,1,4.93,1.12,14.14,14.14,0,0,1,4.5,3.42q3.89,4,3.89,8.57a10.59,10.59,0,0,1-1.4,5.29,12.61,12.61,0,0,1-3.92,4.21,17.93,17.93,0,0,1,1.91,1.66,11.72,11.72,0,0,1,1.33,1.8A10.7,10.7,0,0,1,307.55,53q.14.79.25,2.2t.11,2.48v5.76a1.79,1.79,0,0,0,.18,1,1.17,1.17,0,0,0,.76.29l2.45,2.52v4.82Q310.43,72.29,310,72.36Zm-2-7h-1.15a4.28,4.28,0,0,1-1.33-.14.86.86,0,0,1-.54-.58,1.91,1.91,0,0,1-.22-1.08q-.15-1.44-.18-2.88c0-1,0-1.7,0-2.23V54.07a26.16,26.16,0,0,0-.18-3.1,8.13,8.13,0,0,0-.54-2.3A5.15,5.15,0,0,0,302,46.51a9.24,9.24,0,0,0-3.13-1.44A12.37,12.37,0,0,0,303,40.79a13,13,0,0,0,1.19-6,10.87,10.87,0,0,0-2.59-7.56,8.86,8.86,0,0,0-6.92-2.88,10.14,10.14,0,0,0-4,.76A13.45,13.45,0,0,0,287,27.65q-.8-.72-1.37-1.15a4.31,4.31,0,0,0-1.23-.65,6.51,6.51,0,0,0-1.48-.29q-.83-.07-2.21-.07H278v3.74h.79a11.6,11.6,0,0,1,2.05.14A2,2,0,0,1,282,30a2.25,2.25,0,0,1,.51,1.26,17.65,17.65,0,0,1,.11,2.2v11.3q0,.43-.29.43h-.15a1.09,1.09,0,0,1-.33,0l-.18,0a.89.89,0,0,0-1,1,1,1,0,0,0,.36.76,1.37,1.37,0,0,0,.95.32,1.09,1.09,0,0,0,1.09-.65,5.72,5.72,0,0,0,.29-2.16V33.84q0-3.24-.69-4.25t-3-1h-.86v-2.3a8.26,8.26,0,0,0,.94,0,6.09,6.09,0,0,1,.72,0,21,21,0,0,1,2.33.11,5.27,5.27,0,0,1,1.64.43,3.48,3.48,0,0,1,1.2.94,14.34,14.34,0,0,1,1.09,1.55,9.6,9.6,0,0,1,3.46-3.13A9.33,9.33,0,0,1,294.66,25,8.06,8.06,0,0,1,301,27.76a10.43,10.43,0,0,1,2.45,7.16q0,7.63-6.77,10.44,4,.72,5.51,2.52t1.55,5.76v5.62l.07,1.58.07,2.38a3.49,3.49,0,0,0,.68,2.41,4,4,0,0,0,2.48.54h.22v2a5.91,5.91,0,0,1-.79.07h-.58a6.81,6.81,0,0,1-2.7-.43,7,7,0,0,1-2.12-1.66,12,12,0,0,1-1.69,1.66,4.65,4.65,0,0,1-1.62.86V53.06a19.15,19.15,0,0,0-.18-2.92,3.83,3.83,0,0,0-.65-1.73,2.36,2.36,0,0,0-1.4-.83,11.26,11.26,0,0,0-2.45-.22h-1v.72a2.33,2.33,0,0,0,.5,0,1.21,1.21,0,0,1,.29,0,10.81,10.81,0,0,1,2.2.18,2.13,2.13,0,0,1,1.26.72,3.19,3.19,0,0,1,.58,1.55,20.57,20.57,0,0,1,.14,2.74V69.48a4.72,4.72,0,0,0,1.91-.47,11,11,0,0,0,2.12-1.69q.72.58,1.22.94a3.9,3.9,0,0,0,1,.54,5.72,5.72,0,0,0,1.15.25,12.8,12.8,0,0,0,1.48.07,8.58,8.58,0,0,0,.86,0L308,69Zm-14.69.5q-3.39,0-3.38-3V48.38l-.72-.36V60.84a18.94,18.94,0,0,0,.18,3.24,3.21,3.21,0,0,0,.76,1.51,3.41,3.41,0,0,0,2.59.94v2.16H292a7.49,7.49,0,0,1-3-.54,7.09,7.09,0,0,1-2.45-2,7,7,0,0,1-2.48,2,9.33,9.33,0,0,1-3.56.54h-1.58V66.53a5.44,5.44,0,0,0,3.49-1,4.09,4.09,0,0,0,1-3.17V48l-.72.36V61.78a4.9,4.9,0,0,1-.79,3.24q-.79.86-3.1.86h-.72v3.53q.93.07,1.3.07h.86a11,11,0,0,0,3.85-.54,5.78,5.78,0,0,0,2.41-1.76,8,8,0,0,0,2.41,1.8,8.36,8.36,0,0,0,3.06.43h1.3Zm4.54-33.48a8.69,8.69,0,0,0-.43-2.16,3.36,3.36,0,0,0-3.6-2.66,4.25,4.25,0,0,0-3.35,1.33,5.49,5.49,0,0,0-1.19,3.78V43.34a9.6,9.6,0,0,0,.29,2.92,1.07,1.07,0,0,0,1.08.76l.14-.07a1.47,1.47,0,0,0,.76-.36.92.92,0,0,0,.32-.72q0-.86-1-.86l-.58.07c-.24,0-.36-.36-.36-1.08V33.48q0-5.11,3.74-5.11a2.71,2.71,0,0,1,2.7,1.76q.76,1.77.76,6.44,0,3.89-.9,5.36a3.37,3.37,0,0,1-3.13,1.48h-.43a3.05,3.05,0,0,1-.58-.07v.94h.58a7.22,7.22,0,0,0,2.3-.36A4.17,4.17,0,0,0,296.6,43a4.68,4.68,0,0,0,1-2.3,28.09,28.09,0,0,0,.29-4.75Q297.9,33.48,297.83,32.4Zm-1.69,0a.92.92,0,0,0-1-.83q-1.66,0-1.66,2.59v8.42a2.2,2.2,0,0,0,2.23-1.33,14.47,14.47,0,0,0,.58-5A24.22,24.22,0,0,0,296.14,32.36Zm0,21.49v-.79a2.11,2.11,0,0,0-.32-1.37,1.69,1.69,0,0,0-1.26-.36,1,1,0,0,0-.86.29,1.91,1.91,0,0,0-.22,1.08v12c.19.29.34.49.43.61a4.66,4.66,0,0,0,.72.61l.94.72.58.43Z" transform="translate(-19.62 -23.54)"/><path class="cls-1" d="M346.57,72.58a8.32,8.32,0,0,1-6.26-2.09,12.54,12.54,0,0,1-2.81,1.76,7.24,7.24,0,0,1-2.74.47h-.86a7.29,7.29,0,0,1-1.15-.14l-2.52-2.66V65.23h.22a4.59,4.59,0,0,0,2.41-.43,1.91,1.91,0,0,0,.61-1.66q0-.36,0-.86a7.4,7.4,0,0,0-.11-.86l-.58-3.17h-5.33l-1.22,6.7.94.29,2,2.16v5.18a7.81,7.81,0,0,1-.86.07h-.65a6.47,6.47,0,0,1-5-2.16,14.15,14.15,0,0,1-1.19.9,4.57,4.57,0,0,1-.76.4,6.67,6.67,0,0,1-1.8.65,9.93,9.93,0,0,1-2.09.22h-.58a3.14,3.14,0,0,1-.58-.07l-2.74-3.1V64.94h.58a7.14,7.14,0,0,0,2.16-.22,3.31,3.31,0,0,0,1.15-.79,6.74,6.74,0,0,0,1.58-3.38l2.23-9.72.11-.54a1.62,1.62,0,0,0,0-.32,1.46,1.46,0,0,0-.29-.94L320,48a3.7,3.7,0,0,1-.43-1.66,1.52,1.52,0,0,1,.43-1.22,5.88,5.88,0,0,1,1.66-.79l.43-.14L324.9,32.4l-2.81-3.31V24.55c.48,0,.84,0,1.08,0s.48,0,.72,0q1.51,0,3.06,0t2.34.11l1.8.29a6.69,6.69,0,0,1,1.66.5,14.7,14.7,0,0,1,2.52-.83,12.56,12.56,0,0,1,2.66-.25c.48,0,.85,0,1.12,0s.64.08,1.12.18l3,2.74V32.4h-.36a8.36,8.36,0,0,0-2.3.18q-.43.18-.43,1v.36a.79.79,0,0,0,.07.36l1.44,8.35.14,1.08a4.33,4.33,0,0,0,.29.94,13.43,13.43,0,0,0,.79,1.22,3.19,3.19,0,0,1,.79,1.94,2.55,2.55,0,0,1-.22,1l-.43.94-.07.79.14.94L345,63.94q.22,1.3,1.15,1.3h.14l2.59,2.45v4.9Zm-1.08-6.7h-.36a5,5,0,0,1-1.26-.18,4.08,4.08,0,0,1-1-.4,3.43,3.43,0,0,1-1-2.3l-2.45-14.47-1-.36,2.52,14.9q.22,1.23.32,1.62a2.25,2.25,0,0,0,.47.83,3.75,3.75,0,0,0,3,1.08v1.73h-1.08a7.46,7.46,0,0,1-2.92-.5A8.8,8.8,0,0,1,338,65.88q-.72.79-1,1.12a8.22,8.22,0,0,1-.68.61,6.37,6.37,0,0,1-1.71.68,7.83,7.83,0,0,1-2,.25h-.76V66.6a.45.45,0,0,0,.21,0,.3.3,0,0,1,.14,0,4.3,4.3,0,0,0,2.22-.65,2.09,2.09,0,0,0,.63-1.73V64a12.15,12.15,0,0,0-.11-1.55q-.11-.83-.18-1.4l-.86-6.34h-9.23l-1.43,5.9c0,.14-.1.31-.14.5s-.1.41-.14.65-.08.76-.11,1.12,0,.64,0,.83a2.56,2.56,0,0,0,.54,1.8,4.09,4.09,0,0,0,2,.94.2.2,0,0,0,.14.07.57.57,0,0,1,.22.07v1.94h-.14a8.36,8.36,0,0,1-2.74-.36,7.75,7.75,0,0,1-2.23-1.37A10.27,10.27,0,0,1,318.13,68a8.81,8.81,0,0,1-2.52.32h-1.08V66.6a9.93,9.93,0,0,0,2.12-.43,3.44,3.44,0,0,0,1.4-.9,5,5,0,0,0,1-1.62,24.56,24.56,0,0,0,.83-2.66L323,48.17l-.94.36L319,61c-.1.38-.17.68-.22.9a2.32,2.32,0,0,1-.14.47,4.76,4.76,0,0,1-.87,1.94,3.12,3.12,0,0,1-1.45,1.12,10.7,10.7,0,0,1-2.69.47v3.38a3.91,3.91,0,0,0,.87.14h.72a13,13,0,0,0,2.75-.25,14.63,14.63,0,0,0,2.53-.83,8.57,8.57,0,0,0,1.37.58q.51.15,1.16.29a4.05,4.05,0,0,0,.79.07,8.55,8.55,0,0,1,1,.07h1a3.66,3.66,0,0,0,.72-.07v-3.4l-.43-.07a4.4,4.4,0,0,1-1.88-.65,1.61,1.61,0,0,1-.58-1.38v-.51a3.32,3.32,0,0,1,.07-.65L324,61l.22-1.09,1-4.56h7.95l1,6.59a2.93,2.93,0,0,0,0,.4,5.07,5.07,0,0,1,0,.69,1.18,1.18,0,0,0,0,.29,1.22,1.22,0,0,1,0,.29q0,2.24-3,2.24H331v3.4a3.66,3.66,0,0,0,.76.15h.62a9.16,9.16,0,0,0,3.23-.47A6.53,6.53,0,0,0,338,67.25a8.45,8.45,0,0,0,2.63,1.69,8.33,8.33,0,0,0,2.92.47h.86a6,6,0,0,0,1.08-.14Zm-6-20.81a1.44,1.44,0,0,1-.65-.07.7.7,0,0,1-.14-.5l-2.23-12.82a4.4,4.4,0,0,1-.07-.86,1.59,1.59,0,0,1,.79-1.48,6,6,0,0,1,2.66-.54V25.27a1.76,1.76,0,0,0-.65-.15h-1a9.94,9.94,0,0,0-3.38.48,10.68,10.68,0,0,0-3,2,17.68,17.68,0,0,0-1.3-1.22,4.78,4.78,0,0,0-1.19-.74,4.68,4.68,0,0,0-1.37-.33q-.76-.07-1.84-.07l-2.59.07h-.65V28.8a2,2,0,0,1,.43,0,1.12,1.12,0,0,0,.29,0c.38,0,.7,0,.94,0l.58,0a1.1,1.1,0,0,1,1,1.15v.22a3.89,3.89,0,0,1-.22,1.22,7.83,7.83,0,0,1-.29,1.44l-2.74,11.38a1.74,1.74,0,0,1-.25.61,1.23,1.23,0,0,1-.68.11h-.07a1.58,1.58,0,0,0-1,.4,1.16,1.16,0,0,0-.47.9q0,.86,1,.86a1.68,1.68,0,0,0,1.48-.83,10,10,0,0,0,1-2.77L326.7,32a.65.65,0,0,0,.07-.29,3.11,3.11,0,0,1,.07-.58,3.11,3.11,0,0,0,.07-.58v-.43a1.81,1.81,0,0,0-.68-1.66,5.86,5.86,0,0,0-2.63-.5V26a8,8,0,0,1,.94-.07h.72a10.3,10.3,0,0,1,4,.61,5.11,5.11,0,0,1,2.3,2.27,17.82,17.82,0,0,1,1.69-1.4,8.67,8.67,0,0,1,1.48-.86,6.55,6.55,0,0,1,1.51-.47,10.19,10.19,0,0,1,1.8-.14,2.68,2.68,0,0,1,.43,0,3.55,3.55,0,0,0,.58,0v2a7.44,7.44,0,0,0-2.84.58,1.59,1.59,0,0,0-.76,1.51v.58a3.09,3.09,0,0,0,.07.58l2.3,13.39q.43,2.74,1.87,2.74a1.12,1.12,0,0,0,.83-.32,1,1,0,0,0,.32-.76Q340.88,45.07,339.51,45.07Zm-6.91,3.1-.79.36.36,2.23h-5.76l.43-2.23-.65-.36-.94,3.46h7.85Zm-.32-3.28q0-.39-.18-1.19l-2-11.88h-.29L327,44.57a9,9,0,0,0-.22,1.58,1.22,1.22,0,0,0,.32.9,1,1,0,0,0,.76.32q1,0,1-1.08a1.07,1.07,0,0,0-.11-.54.94.94,0,0,0-.47-.32c-.34-.19-.5-.41-.5-.65a3,3,0,0,1,.07-.72l.14-.79,1.8-8.35L331.52,44a2.23,2.23,0,0,1,.07.65c0,.43-.12.67-.37.72l-.68.29a.74.74,0,0,0-.45.72.89.89,0,0,0,1,1q1.22,0,1.22-1.73C332.32,45.41,332.3,45.16,332.28,44.89Zm-2.9,2.92v.72a2.53,2.53,0,0,1-.07.72,4.8,4.8,0,0,1-.43.79h2.51Zm1.06-4.39-.36,1.37.58-.22Z" transform="translate(-19.62 -23.54)"/><path class="cls-1" d="M380.37,63.22a11.7,11.7,0,0,1-.32,1.66l-.65,2.59a11.12,11.12,0,0,0-.22,1.48q-.07.83-.07,1.69v1.94l-1-.54a6.45,6.45,0,0,1-.94-.61,6.37,6.37,0,0,0-.65-.58q-.29-.22-.79-.65a22.07,22.07,0,0,1-3.85,2.27,8.11,8.11,0,0,1-3.13.61,8.55,8.55,0,0,1-3.13-.58,14,14,0,0,1-3.28-1.94q-.79.5-1.19.72t-1,.5a6.87,6.87,0,0,1-1.8.65,12.08,12.08,0,0,1-2.09.14h-2.81l-2.88-3V64.94h1.22a8.79,8.79,0,0,0,1.76-.14,1.62,1.62,0,0,0,1-.58A2.61,2.61,0,0,0,355,63a16.76,16.76,0,0,0,.11-2.16V49.46l-.25-.25a.92.92,0,0,1-.18-.25,9.36,9.36,0,0,1-1.33-1.55,2.54,2.54,0,0,1-.32-1.33,1.29,1.29,0,0,1,.65-1.22l.86-.65a1.59,1.59,0,0,0,.5-.58,4.18,4.18,0,0,0,.07-1V33.7a1.43,1.43,0,0,0-.18-.9,1.12,1.12,0,0,0-.76-.18h-.72l-2.88-2.88V24.55h4.84q1.23,0,2.06,0a11.4,11.4,0,0,1,1.45.14c.41.07.8.16,1.16.25a8.42,8.42,0,0,1,1.19.43,5.09,5.09,0,0,1,2-.72,24.31,24.31,0,0,1,3.11-.14h1.81l2.88,3.1v5h-3q-.8,0-1,.29a1.92,1.92,0,0,0-.22,1.08V45.36l.22.36a8,8,0,0,1,1,1.51,2.7,2.7,0,0,1,.25,1.08,1.09,1.09,0,0,1-.43.86l-.65.58a1.31,1.31,0,0,0-.36.54,4.66,4.66,0,0,0-.07,1V63.72q0,1.08.5,1.08a2,2,0,0,0,1-.4,7.26,7.26,0,0,0,1.19-1A10.78,10.78,0,0,1,368,61.2a5.23,5.23,0,0,1-.29-1.8,5.15,5.15,0,0,1,1.48-3.74,4.8,4.8,0,0,1,3.56-1.51,6.73,6.73,0,0,1,2.84.65,8.55,8.55,0,0,1,2.48,1.73A8.73,8.73,0,0,1,379.83,59a6.48,6.48,0,0,1,.65,2.81A11.93,11.93,0,0,1,380.37,63.22Zm-4.43-7a3.93,3.93,0,0,0-3.1-1.3,4.14,4.14,0,0,0-3.1,1.26,4.32,4.32,0,0,0-1.22,3.13,7.65,7.65,0,0,0,0,.83,3.08,3.08,0,0,0,.18.72,6.4,6.4,0,0,0,.4.86q.25.47.76,1.26a2.12,2.12,0,0,0,.14.25,2.61,2.61,0,0,1,.14.25,6.24,6.24,0,0,1-1.91,1.73,4.62,4.62,0,0,1-2.35.65,2.47,2.47,0,0,1-2.6-1.87,4.69,4.69,0,0,1-.25-1.15c0-.33,0-1,0-1.94V48.31l-.72-.36V61.18q0,5.49,3.6,5.49,2.74,0,5.18-3.1a13.78,13.78,0,0,1-1.48-2.3,4.8,4.8,0,0,1-.4-2,3.54,3.54,0,0,1,1-2.56,3.28,3.28,0,0,1,2.45-1,3.45,3.45,0,0,1,2.74,1.15,4.77,4.77,0,0,1,1,3.24,11.15,11.15,0,0,1-.11,1.51q-.11.79-.25,1.66t-.22,1.33a5.09,5.09,0,0,0-.07.61,9.51,9.51,0,0,0-.22,1.58l-.07.7-2-1.58a11.89,11.89,0,0,1-3.6,2.67,9.05,9.05,0,0,1-4,1,6.82,6.82,0,0,1-3.17-.74,12.87,12.87,0,0,1-3.16-2.5,8.15,8.15,0,0,1-2.73,1.83,11,11,0,0,1-3.45.42H352V66.46a5,5,0,0,0,3.56-1,4.49,4.49,0,0,0,1-3.33V48l-.72.36V61.49a5.55,5.55,0,0,1-.76,3.42q-.76.9-3.06.9h-.72v3.46h2.09q1.22,0,2.05-.07a5.77,5.77,0,0,0,1.51-.32,6.53,6.53,0,0,0,1.3-.65,10.84,10.84,0,0,0,1.33-1,14.35,14.35,0,0,0,3.2,2.38,7.08,7.08,0,0,0,3.13.65,9,9,0,0,0,3.74-.78,15.64,15.64,0,0,0,3.82-2.65l2.66,2.09a4.36,4.36,0,0,0,0-.61,3.29,3.29,0,0,1,0-.47,6.29,6.29,0,0,1,.07-.87q.07-.5.22-1.3a37.87,37.87,0,0,0,.72-5.84A5.13,5.13,0,0,0,375.95,56.23Zm-8.64-30.89h-.43q-1,0-1.69,0l-1.15.07a3.38,3.38,0,0,0-.79.14l-.75.25a3.62,3.62,0,0,0-1.22.54,9.17,9.17,0,0,0-1.15,1.12,6.46,6.46,0,0,0-2.4-1.73,11.58,11.58,0,0,0-3.69-.43h-2.65v3.89h.29a7.06,7.06,0,0,1,3.49.54q.76.54.76,2.63V44.57c0,.38-.12.58-.37.58h-.15l-.67-.14h-.08a.82.82,0,0,0-.63.29.94.94,0,0,0-.26.65,1,1,0,0,0,.36.76,1.44,1.44,0,0,0,2.14-.36,7,7,0,0,0,.33-2.63V32.83q0-2.66-.76-3.49t-3.22-.83H352v-2.3h2.24a8.1,8.1,0,0,1,3.37.54,6,6,0,0,1,2.21,2.2q.57-.72.86-1a4,4,0,0,1,.86-.68,4.74,4.74,0,0,1,1.65-.79,12.27,12.27,0,0,1,2.72-.22h.72v2.3a11.21,11.21,0,0,0-2.22.18,2.43,2.43,0,0,0-1.33.68,2.56,2.56,0,0,0-.61,1.33,12.86,12.86,0,0,0-.14,2.12V44.35a5.26,5.26,0,0,0,.29,2.05,1.08,1.08,0,0,0,1.08.61,1.05,1.05,0,0,0,.82-.36,1.16,1.16,0,0,0,.32-.79q0-1-.86-1a1.36,1.36,0,0,0-.43.07.8.8,0,0,1-.36.07c-.14,0-.21-.19-.21-.58V33a5.34,5.34,0,0,1,.57-3,3,3,0,0,1,2.37-.72h1.36Z" transform="translate(-19.62 -23.54)"/><path class="cls-1" d="M395.24,71.49a4.9,4.9,0,0,1-3.6,1.52,12,12,0,0,1-3.53-.51,9.91,9.91,0,0,1-2.92-1.41,7.09,7.09,0,0,1-2-2.1,4.89,4.89,0,0,1-.72-2.57,5.24,5.24,0,0,1,1.62-3.95,5.64,5.64,0,0,1,4.07-1.56,9.08,9.08,0,0,1,3.2.58A10,10,0,0,1,394.13,63,7.77,7.77,0,0,1,396,65.19a5,5,0,0,1,.72,2.53A5.13,5.13,0,0,1,395.24,71.49Zm-3.89-8.42A4.6,4.6,0,0,0,388,61.7a4.51,4.51,0,0,0-3.31,1.37,4.78,4.78,0,0,0,0,6.73,4.49,4.49,0,0,0,3.28,1.4,4.54,4.54,0,0,0,3.38-1.4,4.72,4.72,0,0,0,1.37-3.42A4.51,4.51,0,0,0,391.35,63.07Zm-.5,6.23A4,4,0,0,1,388,70.49a4.06,4.06,0,0,1-4-4,3.94,3.94,0,0,1,1.15-2.84,3.76,3.76,0,0,1,2.81-1.19,4.09,4.09,0,0,1,3,1.19,3.92,3.92,0,0,1,0,5.69Z" transform="translate(-19.62 -23.54)"/><path class="cls-1" d="M429.51,32.47a2.56,2.56,0,0,0-1.58.36,1.62,1.62,0,0,0-.43,1.3v9.79l.22,1.15.72,1.08a3.17,3.17,0,0,1,.43,1.51,3,3,0,0,1-.36,1.3l-.65,1-.29.72-.07.79-.22,13v1.15a28.9,28.9,0,0,0,.25,3.53q.25,2,.61,3.67L427,72.43a5.78,5.78,0,0,1-.9-.36q-.43-.22-.94-.5l-1.22-.72a5.24,5.24,0,0,0-.5-.36,9,9,0,0,1-3.82,2.09l-3.74-2.66c0-.43.08-.77.11-1s0-.48,0-.72a18.29,18.29,0,0,0-.29-3,19.93,19.93,0,0,0-.73-3l-3.28-9.58.05,11.74a1.52,1.52,0,0,0,.14.79c.1.14.33.24.72.29a.15.15,0,0,1,.11,0,.28.28,0,0,0,.18,0l2.45,2.38.22,4.68h-.79a11.47,11.47,0,0,1-6.19-1.8,9.53,9.53,0,0,1-2.45,1.55,7,7,0,0,1-2.66.47c-.38,0-.72,0-1,0s-.77-.08-1.44-.18l-2.74-2.66V64.8h1q2.3,0,3.06-.86t.76-3.46V50.18a9.27,9.27,0,0,1-1.69-2.12,3.8,3.8,0,0,1-.47-1.76,1.71,1.71,0,0,1,.29-1.08,3,3,0,0,1,1.15-.72,1.5,1.5,0,0,0,.65-.43s0-.17,0-.36a6.08,6.08,0,0,0,0-.72V34.27a2.37,2.37,0,0,0-.25-1.37,1.86,1.86,0,0,0-1.19-.36,1.82,1.82,0,0,0-.65-.07l-2.45-2.74v-4.9l.93-.07,2.87-.14a.77.77,0,0,0,.25,0,.8.8,0,0,1,.25,0,10.87,10.87,0,0,1,2.65.32,10.35,10.35,0,0,1,2.37.9,7.14,7.14,0,0,1,1.94-1.15,5.92,5.92,0,0,1,2.22-.43,2.16,2.16,0,0,1,1.43.65l1.58,1.3.16-1.44,4.08.14,1.8.11a2.94,2.94,0,0,1,1.08.32,5.69,5.69,0,0,1,1.48-.5,12.6,12.6,0,0,1,2.2-.14q.79,0,1.22,0a8.56,8.56,0,0,1,1.08.18l2.45,2.52v5.11ZM412,66.1a4.38,4.38,0,0,1-2.84-.76,4.17,4.17,0,0,1-.68-2.84v-14l-.72-.29V60.91q0,1.73.11,2.84a4.73,4.73,0,0,0,.43,1.73,2,2,0,0,0,.9.9,4.26,4.26,0,0,0,1.58.36h.43v1.8l-.65.11a3.06,3.06,0,0,1-.5,0,5,5,0,0,1-2.2-.54,6.22,6.22,0,0,1-1.91-1.4,7.78,7.78,0,0,1-5.4,1.87,4,4,0,0,1-.79-.07V66.31a7.57,7.57,0,0,0,2.23-.4,2.93,2.93,0,0,0,1.37-1,4.46,4.46,0,0,0,.72-1.84,16.06,16.06,0,0,0,.22-2.88v-12l-.65.29v10.8a29.19,29.19,0,0,1-.14,3.2,4.67,4.67,0,0,1-.58,1.94,2.18,2.18,0,0,1-1.26.94,7.76,7.76,0,0,1-2.2.25h-.43v3.67l.9.11a6,6,0,0,0,.68,0,9.11,9.11,0,0,0,2.81-.4A11.79,11.79,0,0,0,406,67.82a7,7,0,0,0,2,1.22,6.3,6.3,0,0,0,2.05.29h1.51l.5-.07Zm6.19-20.81a2.67,2.67,0,0,0-.94.43l-4.75-16.13a10.5,10.5,0,0,1-.43-2,16.38,16.38,0,0,1-.14-2v-.29a6.45,6.45,0,0,0-4.68,2.23,5.11,5.11,0,0,0-2.2-1.62,9.84,9.84,0,0,0-3.35-.47h-1.08a7.38,7.38,0,0,0-1.22.14V28.8h.43a6.51,6.51,0,0,1,2,.22,2.67,2.67,0,0,1,1.12.79,7.58,7.58,0,0,1,.4.76,3.43,3.43,0,0,1,.25,1c0,.29.08.53.11.72s0,.43.07.72,0,.65,0,1.08v8.78a7.57,7.57,0,0,1-.14,1.8.9.9,0,0,1-.5.65l-.65.14a.74.74,0,0,0-.65.79.86.86,0,0,0,.86.86,1.42,1.42,0,0,0,1.26-1,5.74,5.74,0,0,0,.47-2.48V32.9q0-.72,0-1.19a3.4,3.4,0,0,0-.14-.79l-.25-.76a3,3,0,0,0-1.37-1.58,5.54,5.54,0,0,0-2.59-.5v-1.8l.9-.11a7,7,0,0,1,.76,0q4,0,5.54,2.38a7.69,7.69,0,0,1,1.62-1.58,6.94,6.94,0,0,1,2.27-.94q.07.79.25,1.73t.32,1.51l.22.72,4.25,15a5.72,5.72,0,0,0,.68,1.51,1.06,1.06,0,0,0,.9.43h.14a1.63,1.63,0,0,0,.76-.32A.75.75,0,0,0,419,46Q419,45.29,418.21,45.29ZM408,35.71l-.22,8.93v.07q0,2.45,1.44,2.45a.83.83,0,0,0,.94-.94.71.71,0,0,0-.36-.65.49.49,0,0,0-.36-.14h-.07l-.29.07h-.14q-.29,0-.29-.43V40.54l1.3,3.67.86.43Zm16.45,32q-.11-.57-.18-1.19a10.59,10.59,0,0,1-.07-1.26V48.67l-.65-.43V62.93l-.07,1.3v.36q0,1.23.07,1.94t.22,1.58a7.92,7.92,0,0,1-3.1-1.8l-.43-.36-.36.29-.94.79a7.09,7.09,0,0,0-.58.5,4.83,4.83,0,0,1-.79.58,23.67,23.67,0,0,0-.29-2.52,18.55,18.55,0,0,0-.79-3l-5-15.84-.43.86,5,16a11.89,11.89,0,0,1,.53,2.45,20.57,20.57,0,0,1,.18,2.45v.65a6.06,6.06,0,0,0,1.37-.54,9.51,9.51,0,0,0,1.58-1.26l.5-.36.36.29a9.21,9.21,0,0,0,2.12,1.37,11.11,11.11,0,0,0,2,.5C424.59,68.62,424.51,68.14,424.44,67.75Zm-5.87-35-2.74-2.66,2.74,9.07Zm9.14-7.27-.79-.11a8.93,8.93,0,0,0-3.31.32,3.65,3.65,0,0,0-1.51,1.22,5.75,5.75,0,0,0-.76-.76,2.46,2.46,0,0,0-1-.47,9.23,9.23,0,0,0-1.37-.22q-.79-.07-1.94-.07h-1v3.53a2.53,2.53,0,0,1,.45-.07h.27a2.68,2.68,0,0,1,2.09.72,1.61,1.61,0,0,1,.22.5q.07.29.14.65V44.28l.65.5.22-13.1V31.1a3.22,3.22,0,0,0-.68-2.41,4.49,4.49,0,0,0-2.7-.68V26.14h1.15a6.85,6.85,0,0,1,2.59.4A3.83,3.83,0,0,1,422.1,28a4.33,4.33,0,0,1,1.48-1.48,4.63,4.63,0,0,1,2.27-.47h.58a3.16,3.16,0,0,1,.58.07V28a3.51,3.51,0,0,0-2.63,1.12,5.59,5.59,0,0,0-.76,3.35V44.28a3.12,3.12,0,0,0,.4,1.66,1.18,1.18,0,0,0,1,.65.83.83,0,0,0,.94-.94q0-.79-.86-.79a1.2,1.2,0,0,0-.29,0,2.45,2.45,0,0,0-.43.18l-.07-.36.07-.65V32.18a3.92,3.92,0,0,1,.68-2.63,3.15,3.15,0,0,1,2.41-.76h.22Zm-8.57,21.67v3.46l-.86-2.38h-.72l2,7,.29-8.42Z" transform="translate(-19.62 -23.54)"/><path class="cls-1" d="M461.84,64.37l-.58,2.38q-.22,1-.36,2.12a18.78,18.78,0,0,0-.14,2.41v.58a5.69,5.69,0,0,0,.07.72q-.86-.5-1.84-1.15a14.73,14.73,0,0,1-1.62-1.22l-.32.22-.25.14q-1.22.79-2.05,1.3a8.85,8.85,0,0,1-1.51.76,5.71,5.71,0,0,1-1.37.32,15.12,15.12,0,0,1-1.55.07,8.26,8.26,0,0,1-3.1-.58,14.23,14.23,0,0,1-3.17-1.87q-1,.65-1.48.9a11.58,11.58,0,0,1-1.19.54,5.86,5.86,0,0,1-1.44.47,14.94,14.94,0,0,1-2.16.11h-2.66l-3-3.1V64.94H433a15.92,15.92,0,0,0,2.12-.11,1.86,1.86,0,0,0,1.15-.54,2.27,2.27,0,0,0,.5-1.26,18.65,18.65,0,0,0,.11-2.27V49.46a12.74,12.74,0,0,1-1.76-1.94,2.79,2.79,0,0,1-.54-1.58,1.28,1.28,0,0,1,.29-.94,6,6,0,0,1,1.22-.79,1.33,1.33,0,0,0,.65-.47,2,2,0,0,0,.14-.9V33.55a1.43,1.43,0,0,0-.18-.9,1.43,1.43,0,0,0-.9-.18,2.17,2.17,0,0,1-.65-.07l-3-2.88v-5h1.51q2.52,0,4,0a14.37,14.37,0,0,1,2.23.18,8.61,8.61,0,0,1,1.76.5,6.51,6.51,0,0,1,1.48.79,12.91,12.91,0,0,1,6.12-1.66,14.1,14.1,0,0,1,3.35.43,13.11,13.11,0,0,1,3.2,1.22q.65-.58,1.08-.9l1.15-.83,2.74,2.66a3.85,3.85,0,0,0-.65,1.4A8.35,8.35,0,0,0,460,30a5.6,5.6,0,0,0,.22,1.73l.79,2.38q.22.65.36,1.26a5.5,5.5,0,0,1-.29,3.38,5.47,5.47,0,0,1-1.19,1.8,6.49,6.49,0,0,1-1.69,1.22,4.45,4.45,0,0,1-2,.47,5.84,5.84,0,0,1-2.52-.58,6.79,6.79,0,0,1-2.12-1.55,8.57,8.57,0,0,1-1.48-2.2,6,6,0,0,1-.58-2.59,6.93,6.93,0,0,1,.07-1A7.09,7.09,0,0,1,450,33a.78.78,0,0,0-.43-.14q-1.29,0-1.3,3.46v6h5.4l1.87,2.45-2.3,2.16,3,3.6h-7.92v13.1q0,1.08.65,1.08a1.82,1.82,0,0,0,.94-.4,8.21,8.21,0,0,0,1.15-1l-.29-.43A9.51,9.51,0,0,1,449.6,61a5.07,5.07,0,0,1-.22-1.58,5.12,5.12,0,0,1,1.48-3.78,5,5,0,0,1,3.71-1.48,6.66,6.66,0,0,1,2.88.65,9.13,9.13,0,0,1,2.45,1.69,7.58,7.58,0,0,1,1.69,2.45,7.24,7.24,0,0,1,.61,2.92A12.09,12.09,0,0,1,461.84,64.37Zm-3.42-30.82c-.12-.58-.28-1.2-.47-1.87s-.26-1.07-.36-1.48a10.46,10.46,0,0,1-.22-1.22q-.07-.61-.14-1.3a15.79,15.79,0,0,1-.07-1.62l-.43.29-.72.58-.58.4-.36.25A9.17,9.17,0,0,0,449,25.06a8,8,0,0,0-3.12.61,20.31,20.31,0,0,0-3.55,2.05q-.72-.65-1-.9t-.9-.61a9.31,9.31,0,0,0-1.87-.72,13.22,13.22,0,0,0-2.87-.22H433v3.82h.42a15.69,15.69,0,0,1,2.25.11,2.32,2.32,0,0,1,1.15.54,1.75,1.75,0,0,1,.58,1,10.64,10.64,0,0,1,.14,2.12V44.42c0,.38-.1.58-.29.58a1.35,1.35,0,0,1-.43-.07h-.22a1.11,1.11,0,0,0-.76.29.92.92,0,0,0-.32.72q0,1,1.15,1a1.3,1.3,0,0,0,1.22-.61,4.93,4.93,0,0,0,.36-2.27V32.54a4.61,4.61,0,0,0-.83-3.17,4.33,4.33,0,0,0-3.13-.86h-.65V26.06c.43,0,.74-.07.94-.07h.72a17.73,17.73,0,0,1,2.45.14,5.09,5.09,0,0,1,1.73.54,4,4,0,0,1,1.22,1,14.54,14.54,0,0,1,1.08,1.66,10.76,10.76,0,0,1,3.42-2.63,8.71,8.71,0,0,1,3.85-1,9.09,9.09,0,0,1,6,2.74l1.44-1.15a1.76,1.76,0,0,0,.07.65c0,.38.1.78.14,1.19a9.28,9.28,0,0,0,.22,1.19,2.82,2.82,0,0,1,.14.68,9.65,9.65,0,0,0,.43,1.62,9.93,9.93,0,0,1,.36,2.23,3.71,3.71,0,0,1-1.12,2.66,3.47,3.47,0,0,1-2.56,1.15,3,3,0,0,1-2.27-.94,3.19,3.19,0,0,1-.9-2.3,7.27,7.27,0,0,1,2.23-4.82,9.38,9.38,0,0,0-2.38-2.05,5.13,5.13,0,0,0-2.3-.47q-4.61,0-4.61,5.76V44.85q0,2.23,1.37,2.23a1.23,1.23,0,0,0,1.22-1.22,1.2,1.2,0,0,0-.25-.76.76.76,0,0,0-.61-.32l-.58.07c-.34,0-.5-.19-.5-.58V34.2q0-5.4,4-5.4a4.29,4.29,0,0,1,1.94.43,7.58,7.58,0,0,1,1.87,1.44,10.38,10.38,0,0,0-1.62,2.45,5.71,5.71,0,0,0-.47,2.3,3.93,3.93,0,0,0,4,4,4.15,4.15,0,0,0,3-1.3,4.31,4.31,0,0,0,1.3-3.17A7.19,7.19,0,0,0,458.42,33.55Zm-.79,22.72a3.85,3.85,0,0,0-3.2-1.4,4.05,4.05,0,0,0-3,1.26,4.32,4.32,0,0,0-1.22,3.13,4.5,4.5,0,0,0,.29,1.62,11.27,11.27,0,0,0,1.08,2l.36.58a6.64,6.64,0,0,1-2,1.69,4.85,4.85,0,0,1-2.38.68,2.65,2.65,0,0,1-1.69-.54,2.51,2.51,0,0,1-.9-1.4,9,9,0,0,1-.22-1.22,18,18,0,0,1-.07-1.87V48.24l-.65-.36v14.4a5.54,5.54,0,0,0,.07,1c0,.26.1.49.14.68a3.64,3.64,0,0,0,.29.72,3.05,3.05,0,0,0,3.1,1.8q2.88,0,5.18-3A7.09,7.09,0,0,1,450.9,59a3.45,3.45,0,0,1,1-2.48,3.28,3.28,0,0,1,2.45-1,3.43,3.43,0,0,1,2.7,1.19,4.47,4.47,0,0,1,1,3.06,12.76,12.76,0,0,1-.07,1.33q-.07.68-.22,1.48-.36,2.3-.43,2.74l-.14,1.37-.07.72-2.09-1.58q-3.67,3.67-7.42,3.67a7.08,7.08,0,0,1-3.28-.76,12.26,12.26,0,0,1-3.13-2.48q-.72.65-1.33,1.12a4.91,4.91,0,0,1-1.3.72,6.94,6.94,0,0,1-1.55.36,16.44,16.44,0,0,1-2,.11h-.58a7.51,7.51,0,0,1-.86-.07V66.24l1.58-.11a3.42,3.42,0,0,0,1.15-.4,2.61,2.61,0,0,0,1.51-1.51,12.21,12.21,0,0,0,.36-3.6V47.88l-.71.36v13a10.89,10.89,0,0,1-.18,2.2,2.25,2.25,0,0,1-2,1.94,16.31,16.31,0,0,1-2.38.25v3.53a9.55,9.55,0,0,0,1,.07h.72a11.84,11.84,0,0,0,4.73-.79,2.14,2.14,0,0,0,.86-.47l1-.9a8.5,8.5,0,0,0,6.45,3,8.22,8.22,0,0,0,3.34-.65,15.9,15.9,0,0,0,3.49-2.3l.5-.43,2.74,2v-.22c0-.62,0-1.12,0-1.48s.08-.9.18-1.62l.5-3a11,11,0,0,0,.22-2.16A6.16,6.16,0,0,0,457.63,56.27ZM446.14,43v.72h5.33l-1.22,1.51.94,1.66h-3.46v.65h4.68l-1.22-2.3L453,43Z" transform="translate(-19.62 -23.54)"/><path class="cls-1" d="M497.95,39.78a5,5,0,0,1-3.71,1.62,6.84,6.84,0,0,1-3.74-1.15,10.28,10.28,0,0,1-3.17-3.38v8.42l.36.43.86,1.15a2.11,2.11,0,0,1,.5,1.3,1.18,1.18,0,0,1-.14.65,7.86,7.86,0,0,1-.94.94,2.57,2.57,0,0,0-.54.68,3.89,3.89,0,0,0-.11,1.19v12.1c0,.53.08.86.25,1a2.17,2.17,0,0,0,1.12.29l3,3v4.61h-3.46A9.44,9.44,0,0,1,484.7,72a7.37,7.37,0,0,1-2.56-1.84q-.72.79-1.22,1.26a4,4,0,0,1-1,.72,3.69,3.69,0,0,1-1.15.32,12.84,12.84,0,0,1-1.48.07h-3l-3-3.1V65h1.08a4.53,4.53,0,0,0,2.84-.65,3.14,3.14,0,0,0,.76-2.45V49.46a13,13,0,0,1-1.69-2.05,2.9,2.9,0,0,1-.4-1.48,1.64,1.64,0,0,1,1.22-1.66,1.26,1.26,0,0,0,.72-.5A2.73,2.73,0,0,0,476,42.7V38.81a5.45,5.45,0,0,1-4.82,2.66,7,7,0,0,1-3.17-.79,8.52,8.52,0,0,1-3-2.7,6,6,0,0,1-1.22-3.42,16.09,16.09,0,0,1,.73-3.53,12.61,12.61,0,0,0,.54-2,10.13,10.13,0,0,0,.18-1.73,8.43,8.43,0,0,0-.79-3.38,21.08,21.08,0,0,1,2.29.61q.69.25,1.93.76l.51.22a20.2,20.2,0,0,1,3.15-1.26,9.69,9.69,0,0,1,2.56-.32,14,14,0,0,1,3.24.4,31.27,31.27,0,0,1,3.74,1.19,15.86,15.86,0,0,1,2.84-1.22,9.76,9.76,0,0,1,2.56-.29,14.91,14.91,0,0,1,6.34,1.51l2.09-1.58,2.74,2.88a13.9,13.9,0,0,0-.36,1.62,9.52,9.52,0,0,0-.07,1.26,6.14,6.14,0,0,0,.43,2.3l.72,1.94a6.22,6.22,0,0,1,.36,1.94A5.47,5.47,0,0,1,497.95,39.78Zm-2.32-8.24a15.76,15.76,0,0,1-.47-2.45Q495,28,495,26.78v-.58a5.84,5.84,0,0,1,.07-.79l-1.22.68c-.29.17-.6.37-.94.61a8.41,8.41,0,0,0-5.62-2,7.74,7.74,0,0,0-3.28.65,13.15,13.15,0,0,0-3.2,2.3,8.51,8.51,0,0,0-2.7-2.3,7.64,7.64,0,0,0-3.35-.65,8.84,8.84,0,0,0-3.17.58,13.54,13.54,0,0,0-3.17,1.8A6.41,6.41,0,0,0,467.26,26q-.65-.43-1.44-.86.14.65.22,1a5,5,0,0,1,.07.94A12.79,12.79,0,0,1,466,29a14.23,14.23,0,0,1-.76,2.59,10.82,10.82,0,0,0-.62,3,3.56,3.56,0,0,0,1.09,2.7,3.85,3.85,0,0,0,2.77,1,4,4,0,0,0,3-1.26,4.12,4.12,0,0,0,1.24-3,5.72,5.72,0,0,0-.26-1.87,10,10,0,0,0-1.06-1.94,4.22,4.22,0,0,1,1.17-1.4,2.83,2.83,0,0,1,1.6-.4,2.21,2.21,0,0,1,1.93,1,4.62,4.62,0,0,1,.69,2.66V44.42c0,.43-.12.65-.37.65l-.75-.07a.84.84,0,0,0-1,.94,1,1,0,0,0,.32.76,1.21,1.21,0,0,0,.9.32q1.51,0,1.51-2.66V32.62q0-4.82-3.46-4.82-2.23,0-3.46,2.52a6.36,6.36,0,0,1,1.44,3.74,3.59,3.59,0,0,1-1,2.59,3.37,3.37,0,0,1-2.55,1,3,3,0,0,1-2.19-.79,2.76,2.76,0,0,1-.83-2.09,12.63,12.63,0,0,1,.79-3.67,11.71,11.71,0,0,0,.58-3.17v-.58a7.72,7.72,0,0,0-.07-.86,6.89,6.89,0,0,1,1,.83l.76.76a11.27,11.27,0,0,1,3.1-2,8.46,8.46,0,0,1,3.17-.58,7,7,0,0,1,3.31.76,8.61,8.61,0,0,1,2.81,2.63,7.93,7.93,0,0,1,6.55-3.38A7.53,7.53,0,0,1,493,27.72l1.37-.86c0,.48,0,.88,0,1.19s.06.65.11,1,.12.77.22,1.22.22,1,.36,1.76a8.66,8.66,0,0,1,.29,2.23,3.59,3.59,0,0,1-6,2.59,3.15,3.15,0,0,1-1-2.38,6.82,6.82,0,0,1,2.16-4.61A4.27,4.27,0,0,0,487,27.94a3.68,3.68,0,0,0-2,.61A3.23,3.23,0,0,0,483.67,30a8.72,8.72,0,0,0-.5,3.46v10.8a5.47,5.47,0,0,0,.29,2.12,1.08,1.08,0,0,0,1.08.61,1.26,1.26,0,0,0,.94-.36,1.18,1.18,0,0,0,.36-.86q0-.93-1-.94l-.5.14h-.14c-.24,0-.36-.33-.36-1V32.54a4.33,4.33,0,0,1,.86-2.84,2.84,2.84,0,0,1,2.3-1,2.73,2.73,0,0,1,1.22.25,6.47,6.47,0,0,1,1.3,1,9.25,9.25,0,0,0-1.44,2.27,5.9,5.9,0,0,0-.43,2.27,3.9,3.9,0,0,0,1.22,2.92,4.26,4.26,0,0,0,3.1,1.19,3.94,3.94,0,0,0,2.88-1.22,4,4,0,0,0,1.22-3A13.79,13.79,0,0,0,495.62,31.54Zm-7.5,34.2h-.94a3.9,3.9,0,0,1-2.05-.43,2.35,2.35,0,0,1-1-1.22,5.17,5.17,0,0,1-.22-1,19.76,19.76,0,0,1-.07-2.05V48.31l-.65-.43V62q0,2.52.9,3.42a4.82,4.82,0,0,0,3.28,1v2.16h-1A9.08,9.08,0,0,1,483,68a6.79,6.79,0,0,1-2.41-1.94A7.9,7.9,0,0,1,478,68a9.76,9.76,0,0,1-3.56.5h-1.68V66.46h.58a8.3,8.3,0,0,0,2.27-.5,2.39,2.39,0,0,0,1.53-1.44,12.57,12.57,0,0,0,.36-3.67v-13l-.72.43V61A6.7,6.7,0,0,1,476,64.8q-.77,1-3,1a2.23,2.23,0,0,1-.37,0,3.86,3.86,0,0,0-.58,0v3.53h.8q2.49,0,3.5-.11a6.68,6.68,0,0,0,1.88-.47,7.18,7.18,0,0,0,1.08-.58,11.66,11.66,0,0,0,1.22-1,9.75,9.75,0,0,0,1.26,1.08,5.19,5.19,0,0,0,1.37.68,7.06,7.06,0,0,0,1.73.32q1,.07,2.48.07h.72ZM476,33.84V32.76q0-1.15-.8-1.15a1.16,1.16,0,0,0-.79.5.42.42,0,0,1,.14.29q.43.58.65.94.07.15.25.43a6.28,6.28,0,0,1,.4.79l.07.22L476,35Z" transform="translate(-19.62 -23.54)"/></svg>